<svg xmlns="http://www.w3.org/2000/svg" xmlns:xlink="http://www.w3.org/1999/xlink" xmlns:lucid="lucid" width="1053.29" height="460"><g transform="translate(1734.2944648355428 -606.6895410952775)" lucid:page-tab-id="0_0"><path d="M-1614.3 796.7c22.1 0 40 17.9 40 40 0 22.08-17.9 40-40 40h-80c-22.1 0-40-17.92-40-40 0-22.1 17.9-40 40-40z" stroke="#000" stroke-opacity="0" stroke-width="3" fill="#00c2a8"/><use xlink:href="#a" transform="matrix(1,0,0,1,-1729.2944648355428,801.6895410952775) translate(53.21388888888889 38.40833333333333)"/><path d="M-1473.6 792.7a6 6 0 0 1 6-6h190a6 6 0 0 1 6 6v88a6 6 0 0 1-6 6h-190a6 6 0 0 1-6-6z" stroke="#000" stroke-opacity="0" stroke-width="3" fill="#6db1ff"/><use xlink:href="#b" transform="matrix(1,0,0,1,-1461.592183047361,798.6895410952775) translate(27.631481481481472 30.783333333333335)"/><use xlink:href="#c" transform="matrix(1,0,0,1,-1461.592183047361,798.6895410952775) translate(66.66851851851851 30.783333333333335)"/><use xlink:href="#d" transform="matrix(1,0,0,1,-1461.592183047361,798.6895410952775) translate(83.89074074074074 30.783333333333335)"/><use xlink:href="#e" transform="matrix(1,0,0,1,-1461.592183047361,798.6895410952775) translate(115.92407407407407 30.783333333333335)"/><use xlink:href="#f" transform="matrix(1,0,0,1,-1461.592183047361,798.6895410952775) translate(17.26944444444443 55.58333333333334)"/><use xlink:href="#g" transform="matrix(1,0,0,1,-1461.592183047361,798.6895410952775) translate(115.95277777777778 55.58333333333334)"/><path d="M-1572.3 836.7h75.97" stroke="#635dff" stroke-width="4" fill="none"/><path d="M-1572.24 838.66h-2.18l.13-1.97-.06-2h2.12z" stroke="#635dff" stroke-width=".05" fill="#635dff"/><path d="M-1480.06 836.7l-14.27 4.63v-9.28z" stroke="#635dff" stroke-width="4" fill="#635dff"/><path d="M-1372.6 784.7v-55.27" stroke="#635dff" stroke-width="4" fill="none"/><path d="M-1370.62 786.7h-3.95v-2.06h3.95z" stroke="#635dff" stroke-width=".05" fill="#635dff"/><path d="M-1372.6 713.16l4.64 14.27h-9.27z" stroke="#635dff" stroke-width="4" fill="#635dff"/><path d="M-1473.6 612.7a6 6 0 0 1 6-6h190a6 6 0 0 1 6 6v88a6 6 0 0 1-6 6h-190a6 6 0 0 1-6-6z" stroke="#000" stroke-opacity="0" stroke-width="3" fill="#6db1ff"/><use xlink:href="#h" transform="matrix(1,0,0,1,-1461.592183047361,618.6895410952775) translate(72.43796296296296 42.65833333333333)"/><path d="M-1372.6 888.7v55.25" stroke="#635dff" stroke-width="4" fill="none"/><path d="M-1370.62 888.74h-3.95v-2.05h3.95z" stroke="#635dff" stroke-width=".05" fill="#635dff"/><path d="M-1372.6 960.22l-4.63-14.27h9.27z" stroke="#635dff" stroke-width="4" fill="#635dff"/><path d="M-1473.6 972.7a6 6 0 0 1 6-6h190a6 6 0 0 1 6 6v88a6 6 0 0 1-6 6h-190a6 6 0 0 1-6-6z" stroke="#000" stroke-opacity="0" stroke-width="3" fill="#6db1ff"/><use xlink:href="#i" transform="matrix(1,0,0,1,-1461.592183047361,978.6895410952775) translate(15.00185185185184 42.65833333333333)"/><use xlink:href="#g" transform="matrix(1,0,0,1,-1461.592183047361,978.6895410952775) translate(118.22037037037038 42.65833333333333)"/><path d="M-1269.6 656.7h55.27" stroke="#635dff" stroke-width="4" fill="none"/><path d="M-1269.54 658.66h-2.05v-3.94h2.06z" stroke="#635dff" stroke-width=".05" fill="#635dff"/><path d="M-1198.06 656.7l-14.27 4.63v-9.28z" stroke="#635dff" stroke-width="4" fill="#635dff"/><path d="M-1191.6 612.7a6 6 0 0 1 6-6h190a6 6 0 0 1 6 6v88a6 6 0 0 1-6 6h-190a6 6 0 0 1-6-6z" stroke="#000" stroke-opacity="0" stroke-width="3" fill="#6db1ff"/><use xlink:href="#j" transform="matrix(1,0,0,1,-1179.592183047361,618.6895410952775) translate(27.717592592592588 18.908333333333335)"/><use xlink:href="#d" transform="matrix(1,0,0,1,-1179.592183047361,618.6895410952775) translate(81.62314814814815 18.908333333333335)"/><use xlink:href="#k" transform="matrix(1,0,0,1,-1179.592183047361,618.6895410952775) translate(113.65648148148148 18.908333333333335)"/><use xlink:href="#l" transform="matrix(1,0,0,1,-1179.592183047361,618.6895410952775) translate(1.85555555555554 43.70833333333334)"/><use xlink:href="#m" transform="matrix(1,0,0,1,-1179.592183047361,618.6895410952775) translate(83.20185185185186 43.70833333333334)"/><use xlink:href="#n" transform="matrix(1,0,0,1,-1179.592183047361,618.6895410952775) translate(16.207407407407402 68.50833333333334)"/><use xlink:href="#o" transform="matrix(1,0,0,1,-1179.592183047361,618.6895410952775) translate(66.72592592592592 68.50833333333334)"/><path d="M-1095.3 763.9a7.65 7.65 0 0 1 9.43 0l88.06 69.1a4.7 4.7 0 0 1 0 7.4l-88.07 69.1a7.65 7.65 0 0 1-9.44 0l-88.07-69.1a4.7 4.7 0 0 1 0-7.4z" stroke="#1071e5" stroke-width="3" fill="#e08fff"/><use xlink:href="#p" transform="matrix(1,0,0,1,-1183.092183047361,765.1895410952775) translate(49.38771604938272 75.87152777777777)"/><use xlink:href="#q" transform="matrix(1,0,0,1,-1183.092183047361,765.1895410952775) translate(75.2519135802469 75.87152777777777)"/><path d="M-1090.6 708.7V738" stroke="#635dff" stroke-width="4" fill="none"/><path d="M-1088.62 708.74h-3.95v-2.05h3.95z" stroke="#635dff" stroke-width=".05" fill="#635dff"/><path d="M-1090.6 754.3l-4.63-14.28h9.27z" stroke="#635dff" stroke-width="4" fill="#635dff"/><path d="M-1088.62 1010.77l-.1 1.17-.28 1.22-.48 1.15-.65 1.08-.82.95-.95.82-1.07.65-1.16.48-1.2.3-1.2.08h-173.06v-3.94h172.93l.7-.06.62-.15.58-.23.54-.33.48-.4.4-.5.34-.53.23-.57.15-.6.05-.72v-75.24h3.95z" stroke="#635dff" stroke-width=".05" fill="#635dff"/><path d="M-1269.54 1018.66h-2.05v-3.94h2.06z" fill="#635dff"/><path stroke="#635dff" stroke-width=".05" fill="#635dff"/><path d="M-1085.96 933.36h-9.27l4.64-14.27z" fill="#635dff"/><path d="M-1083.24 935.33h-14.7l7.35-22.63zm-9.27-3.95h3.83l-1.92-5.9z" stroke="#635dff" stroke-width=".05" fill="#635dff"/><path d="M-707.9 926.8c14.85 0 26.9 12.03 26.9 26.9 0 14.84-12.05 26.9-26.9 26.9h-128.38c-14.86 0-26.9-12.06-26.9-26.9 0-14.87 12.04-26.9 26.9-26.9z" stroke="#000" stroke-opacity="0" stroke-width="3" fill="#fe7070"/><use xlink:href="#r" transform="matrix(1,0,0,1,-858.1803711718828,931.7870009259505) translate(22.648148148148152 25.31666666666667)"/><use xlink:href="#s" transform="matrix(1,0,0,1,-858.1803711718828,931.7870009259505) translate(123.21111111111111 25.31666666666667)"/><path d="M-1187.68 837.66h-32.96l-.82.07-.77.18-.73.32-.67.4-.6.52-.5.6-.42.67-.3.74-.2.76-.05.83v104.92l.06.82.18.77.3.73.42.67.5.6.6.5.68.42.73.3.77.2.82.05h85.4v1.96h-85.48l-1.05-.08-1.07-.26-1-.42-.94-.57-.83-.7-.73-.84-.57-.94-.42-1.02-.25-1.06-.1-1.05.02-105.08.08-1.05.25-1.07.42-1 .58-.94.7-.85.84-.7.93-.58 1-.42 1.08-.25 1.05-.08h33.04zm306 115.05v1.96h-229.95v-1.95z" stroke="#e81313" stroke-width=".05" fill="#e81313"/><path d="M-1186.68 836.7l.1.96h-1.13v-1.94h1.1z" fill="#e81313"/><path stroke="#e81313" stroke-width=".05" fill="#e81313"/><path d="M-866.42 953.7l-14.26 4.62v-9.27z" fill="#e81313"/><path d="M-863.26 953.7l-18.4 5.96V947.7zm-16.45 3.28l10.13-3.3-10.14-3.3z" stroke="#e81313" stroke-width=".05" fill="#e81313"/><g><use xlink:href="#t" transform="matrix(1,0,0,1,-1135.2312045458366,943.020393697983) translate(0 14.222222222222223)"/></g><path d="M-946.62 837.66h-46.88v-1.94h46.88zm64.94-2.6h-29.4v-1.94h29.4z" stroke="#008a0e" stroke-width=".05" fill="#008a0e"/><path d="M-993.48 837.66h-1.1l.08-.97-.1-1h1.12z" fill="#008a0e"/><path stroke="#008a0e" stroke-width=".05" fill="#008a0e"/><path d="M-866.42 834.1l-14.26 4.63v-9.27z" fill="#008a0e"/><path d="M-863.26 834.1l-18.4 5.97v-11.95zm-16.45 3.3l10.13-3.3-10.14-3.3z" stroke="#008a0e" stroke-width=".05" fill="#008a0e"/><g><use xlink:href="#u" transform="matrix(1,0,0,1,-946.6203562066712,824.7258891426737) translate(0 14.222222222222223)"/></g><path d="M-707.67 807.42c14.72 0 26.67 11.95 26.67 26.68s-11.95 26.67-26.67 26.67H-836.5c-14.74 0-26.68-11.94-26.68-26.67 0-14.74 11.94-26.68 26.67-26.68z" stroke="#000" stroke-opacity="0" stroke-width="3" fill="#00c2a8"/><g><use xlink:href="#v" transform="matrix(1,0,0,1,-858.1803711718828,812.4242611944787) translate(23.876543209876544 26.02777777777778)"/><use xlink:href="#w" transform="matrix(1,0,0,1,-858.1803711718828,812.4242611944787) translate(120.85185185185185 26.02777777777778)"/></g><defs><path d="M185-189c-5-48-123-54-124 2 14 75 158 14 163 119 3 78-121 87-175 55-17-10-28-26-33-46l33-7c5 56 141 63 141-1 0-78-155-14-162-118-5-82 145-84 179-34 5 7 8 16 11 25" id="x"/><path d="M59-47c-2 24 18 29 38 22v24C64 9 27 4 27-40v-127H5v-23h24l9-43h21v43h35v23H59v120" id="y"/><path d="M141-36C126-15 110 5 73 4 37 3 15-17 15-53c-1-64 63-63 125-63 3-35-9-54-41-54-24 1-41 7-42 31l-33-3c5-37 33-52 76-52 45 0 72 20 72 64v82c-1 20 7 32 28 27v20c-31 9-61-2-59-35zM48-53c0 20 12 33 32 33 41-3 63-29 60-74-43 2-92-5-92 41" id="z"/><path d="M114-163C36-179 61-72 57 0H25l-1-190h30c1 12-1 29 2 39 6-27 23-49 58-41v29" id="A"/><g id="a"><use transform="matrix(0.057407407407407414,0,0,0.057407407407407414,0,0)" xlink:href="#x"/><use transform="matrix(0.057407407407407414,0,0,0.057407407407407414,13.777777777777779,0)" xlink:href="#y"/><use transform="matrix(0.057407407407407414,0,0,0.057407407407407414,19.51851851851852,0)" xlink:href="#z"/><use transform="matrix(0.057407407407407414,0,0,0.057407407407407414,30.999999999999996,0)" xlink:href="#A"/><use transform="matrix(0.057407407407407414,0,0,0.057407407407407414,37.83148148148148,0)" xlink:href="#y"/></g><path d="M143 4C61 4 22-44 18-125c-5-107 100-154 193-111 17 8 29 25 37 43l-32 9c-13-25-37-40-76-40-61 0-88 39-88 99 0 61 29 100 91 101 35 0 62-11 79-27v-45h-74v-28h105v86C228-13 192 4 143 4" id="B"/><path d="M100-194c63 0 86 42 84 106H49c0 40 14 67 53 68 26 1 43-12 49-29l28 8c-11 28-37 45-77 45C44 4 14-33 15-96c1-61 26-98 85-98zm52 81c6-60-76-77-97-28-3 7-6 17-6 28h103" id="C"/><g id="b"><use transform="matrix(0.057407407407407414,0,0,0.057407407407407414,0,0)" xlink:href="#B"/><use transform="matrix(0.057407407407407414,0,0,0.057407407407407414,16.074074074074076,0)" xlink:href="#C"/><use transform="matrix(0.057407407407407414,0,0,0.057407407407407414,27.555555555555557,0)" xlink:href="#y"/></g><use transform="matrix(0.057407407407407414,0,0,0.057407407407407414,0,0)" xlink:href="#z" id="c"/><path d="M101-234c-31-9-42 10-38 44h38v23H63V0H32v-167H5v-23h27c-7-52 17-82 69-68v24" id="D"/><path d="M24-231v-30h32v30H24zM24 0v-190h32V0H24" id="E"/><path d="M24 0v-261h32V0H24" id="F"/><g id="d"><use transform="matrix(0.057407407407407414,0,0,0.057407407407407414,0,0)" xlink:href="#D"/><use transform="matrix(0.057407407407407414,0,0,0.057407407407407414,5.740740740740741,0)" xlink:href="#E"/><use transform="matrix(0.057407407407407414,0,0,0.057407407407407414,10.275925925925927,0)" xlink:href="#F"/><use transform="matrix(0.057407407407407414,0,0,0.057407407407407414,14.811111111111114,0)" xlink:href="#C"/></g><path d="M117-194c89-4 53 116 60 194h-32v-121c0-31-8-49-39-48C34-167 62-67 57 0H25l-1-190h30c1 10-1 24 2 32 11-22 29-35 61-36" id="G"/><path d="M85-194c31 0 48 13 60 33l-1-100h32l1 261h-30c-2-10 0-23-3-31C134-8 116 4 85 4 32 4 16-35 15-94c0-66 23-100 70-100zm9 24c-40 0-46 34-46 75 0 40 6 74 45 74 42 0 51-32 51-76 0-42-9-74-50-73" id="H"/><g id="e"><use transform="matrix(0.057407407407407414,0,0,0.057407407407407414,0,0)" xlink:href="#z"/><use transform="matrix(0.057407407407407414,0,0,0.057407407407407414,11.481481481481483,0)" xlink:href="#G"/><use transform="matrix(0.057407407407407414,0,0,0.057407407407407414,22.962962962962965,0)" xlink:href="#H"/></g><path d="M96-169c-40 0-48 33-48 73s9 75 48 75c24 0 41-14 43-38l32 2c-6 37-31 61-74 61-59 0-76-41-82-99-10-93 101-131 147-64 4 7 5 14 7 22l-32 3c-4-21-16-35-41-35" id="I"/><path d="M106-169C34-169 62-67 57 0H25v-261h32l-1 103c12-21 28-36 61-36 89 0 53 116 60 194h-32v-121c2-32-8-49-39-48" id="J"/><path d="M143 0L79-87 56-68V0H24v-261h32v163l83-92h37l-77 82L181 0h-38" id="K"/><path d="M135-143c-3-34-86-38-87 0 15 53 115 12 119 90S17 21 10-45l28-5c4 36 97 45 98 0-10-56-113-15-118-90-4-57 82-63 122-42 12 7 21 19 24 35" id="L"/><path d="M84 4C-5 8 30-112 23-190h32v120c0 31 7 50 39 49 72-2 45-101 50-169h31l1 190h-30c-1-10 1-25-2-33-11 22-28 36-60 37" id="M"/><path d="M210-169c-67 3-38 105-44 169h-31v-121c0-29-5-50-35-48C34-165 62-65 56 0H25l-1-190h30c1 10-1 24 2 32 10-44 99-50 107 0 11-21 27-35 58-36 85-2 47 119 55 194h-31v-121c0-29-5-49-35-48" id="N"/><g id="f"><use transform="matrix(0.057407407407407414,0,0,0.057407407407407414,0,0)" xlink:href="#I"/><use transform="matrix(0.057407407407407414,0,0,0.057407407407407414,10.333333333333334,0)" xlink:href="#J"/><use transform="matrix(0.057407407407407414,0,0,0.057407407407407414,21.814814814814817,0)" xlink:href="#C"/><use transform="matrix(0.057407407407407414,0,0,0.057407407407407414,33.2962962962963,0)" xlink:href="#I"/><use transform="matrix(0.057407407407407414,0,0,0.057407407407407414,43.62962962962963,0)" xlink:href="#K"/><use transform="matrix(0.057407407407407414,0,0,0.057407407407407414,53.96296296296297,0)" xlink:href="#L"/><use transform="matrix(0.057407407407407414,0,0,0.057407407407407414,64.2962962962963,0)" xlink:href="#M"/><use transform="matrix(0.057407407407407414,0,0,0.057407407407407414,75.77777777777779,0)" xlink:href="#N"/></g><g id="g"><use transform="matrix(0.057407407407407414,0,0,0.057407407407407414,0,0)" xlink:href="#J"/><use transform="matrix(0.057407407407407414,0,0,0.057407407407407414,11.481481481481483,0)" xlink:href="#z"/><use transform="matrix(0.057407407407407414,0,0,0.057407407407407414,22.962962962962965,0)" xlink:href="#L"/><use transform="matrix(0.057407407407407414,0,0,0.057407407407407414,33.2962962962963,0)" xlink:href="#C"/></g><path d="M63-220v92h138v28H63V0H30v-248h175v28H63" id="O"/><g id="h"><use transform="matrix(0.057407407407407414,0,0,0.057407407407407414,0,0)" xlink:href="#O"/><use transform="matrix(0.057407407407407414,0,0,0.057407407407407414,12.572222222222223,0)" xlink:href="#E"/><use transform="matrix(0.057407407407407414,0,0,0.057407407407407414,17.107407407407408,0)" xlink:href="#F"/><use transform="matrix(0.057407407407407414,0,0,0.057407407407407414,21.642592592592592,0)" xlink:href="#C"/></g><path d="M212-179c-10-28-35-45-73-45-59 0-87 40-87 99 0 60 29 101 89 101 43 0 62-24 78-52l27 14C228-24 195 4 139 4 59 4 22-46 18-125c-6-104 99-153 187-111 19 9 31 26 39 46" id="P"/><g id="i"><use transform="matrix(0.057407407407407414,0,0,0.057407407407407414,0,0)" xlink:href="#P"/><use transform="matrix(0.057407407407407414,0,0,0.057407407407407414,14.86851851851852,0)" xlink:href="#J"/><use transform="matrix(0.057407407407407414,0,0,0.057407407407407414,26.35,0)" xlink:href="#C"/><use transform="matrix(0.057407407407407414,0,0,0.057407407407407414,37.83148148148148,0)" xlink:href="#I"/><use transform="matrix(0.057407407407407414,0,0,0.057407407407407414,48.16481481481482,0)" xlink:href="#K"/><use transform="matrix(0.057407407407407414,0,0,0.057407407407407414,58.498148148148154,0)" xlink:href="#L"/><use transform="matrix(0.057407407407407414,0,0,0.057407407407407414,68.83148148148149,0)" xlink:href="#M"/><use transform="matrix(0.057407407407407414,0,0,0.057407407407407414,80.31296296296297,0)" xlink:href="#N"/></g><path d="M197 0v-115H63V0H30v-248h33v105h134v-105h34V0h-34" id="Q"/><g id="j"><use transform="matrix(0.057407407407407414,0,0,0.057407407407407414,0,0)" xlink:href="#Q"/><use transform="matrix(0.057407407407407414,0,0,0.057407407407407414,14.86851851851852,0)" xlink:href="#z"/><use transform="matrix(0.057407407407407414,0,0,0.057407407407407414,26.35,0)" xlink:href="#L"/><use transform="matrix(0.057407407407407414,0,0,0.057407407407407414,36.68333333333334,0)" xlink:href="#C"/></g><path d="M206 0h-36l-40-164L89 0H53L-1-190h32L70-26l43-164h34l41 164 42-164h31" id="R"/><g id="k"><use transform="matrix(0.057407407407407414,0,0,0.057407407407407414,0,0)" xlink:href="#R"/><use transform="matrix(0.057407407407407414,0,0,0.057407407407407414,14.86851851851852,0)" xlink:href="#E"/><use transform="matrix(0.057407407407407414,0,0,0.057407407407407414,19.403703703703705,0)" xlink:href="#y"/><use transform="matrix(0.057407407407407414,0,0,0.057407407407407414,25.144444444444446,0)" xlink:href="#J"/></g><g id="l"><use transform="matrix(0.057407407407407414,0,0,0.057407407407407414,0,0)" xlink:href="#E"/><use transform="matrix(0.057407407407407414,0,0,0.057407407407407414,4.535185185185186,0)" xlink:href="#H"/><use transform="matrix(0.057407407407407414,0,0,0.057407407407407414,16.01666666666667,0)" xlink:href="#C"/><use transform="matrix(0.057407407407407414,0,0,0.057407407407407414,27.498148148148154,0)" xlink:href="#G"/><use transform="matrix(0.057407407407407414,0,0,0.057407407407407414,38.979629629629635,0)" xlink:href="#y"/><use transform="matrix(0.057407407407407414,0,0,0.057407407407407414,44.720370370370375,0)" xlink:href="#E"/><use transform="matrix(0.057407407407407414,0,0,0.057407407407407414,49.25555555555556,0)" xlink:href="#I"/><use transform="matrix(0.057407407407407414,0,0,0.057407407407407414,59.588888888888896,0)" xlink:href="#z"/><use transform="matrix(0.057407407407407414,0,0,0.057407407407407414,71.07037037037038,0)" xlink:href="#F"/></g><g id="m"><use transform="matrix(0.057407407407407414,0,0,0.057407407407407414,0,0)" xlink:href="#I"/><use transform="matrix(0.057407407407407414,0,0,0.057407407407407414,10.333333333333334,0)" xlink:href="#J"/><use transform="matrix(0.057407407407407414,0,0,0.057407407407407414,21.814814814814817,0)" xlink:href="#C"/><use transform="matrix(0.057407407407407414,0,0,0.057407407407407414,33.2962962962963,0)" xlink:href="#I"/><use transform="matrix(0.057407407407407414,0,0,0.057407407407407414,43.62962962962963,0)" xlink:href="#K"/><use transform="matrix(0.057407407407407414,0,0,0.057407407407407414,53.96296296296297,0)" xlink:href="#L"/><use transform="matrix(0.057407407407407414,0,0,0.057407407407407414,64.2962962962963,0)" xlink:href="#M"/><use transform="matrix(0.057407407407407414,0,0,0.057407407407407414,75.77777777777779,0)" xlink:href="#N"/></g><g id="n"><use transform="matrix(0.057407407407407414,0,0,0.057407407407407414,0,0)" xlink:href="#J"/><use transform="matrix(0.057407407407407414,0,0,0.057407407407407414,11.481481481481483,0)" xlink:href="#z"/><use transform="matrix(0.057407407407407414,0,0,0.057407407407407414,22.962962962962965,0)" xlink:href="#L"/><use transform="matrix(0.057407407407407414,0,0,0.057407407407407414,33.2962962962963,0)" xlink:href="#C"/></g><path d="M177-190C167-65 218 103 67 71c-23-6-38-20-44-43l32-5c15 47 100 32 89-28v-30C133-14 115 1 83 1 29 1 15-40 15-95c0-56 16-97 71-98 29-1 48 16 59 35 1-10 0-23 2-32h30zM94-22c36 0 50-32 50-73 0-42-14-75-50-75-39 0-46 34-46 75s6 73 46 73" id="S"/><path d="M100-194c62-1 85 37 85 99 1 63-27 99-86 99S16-35 15-95c0-66 28-99 85-99zM99-20c44 1 53-31 53-75 0-43-8-75-51-75s-53 32-53 75 10 74 51 75" id="T"/><g id="o"><use transform="matrix(0.057407407407407414,0,0,0.057407407407407414,0,0)" xlink:href="#z"/><use transform="matrix(0.057407407407407414,0,0,0.057407407407407414,11.481481481481483,0)" xlink:href="#F"/><use transform="matrix(0.057407407407407414,0,0,0.057407407407407414,16.01666666666667,0)" xlink:href="#S"/><use transform="matrix(0.057407407407407414,0,0,0.057407407407407414,27.498148148148154,0)" xlink:href="#T"/><use transform="matrix(0.057407407407407414,0,0,0.057407407407407414,38.979629629629635,0)" xlink:href="#A"/><use transform="matrix(0.057407407407407414,0,0,0.057407407407407414,45.81111111111112,0)" xlink:href="#E"/><use transform="matrix(0.057407407407407414,0,0,0.057407407407407414,50.3462962962963,0)" xlink:href="#y"/><use transform="matrix(0.057407407407407414,0,0,0.057407407407407414,56.08703703703704,0)" xlink:href="#J"/><use transform="matrix(0.057407407407407414,0,0,0.057407407407407414,67.56851851851853,0)" xlink:href="#N"/><use transform="matrix(0.057407407407407414,0,0,0.057407407407407414,84.73333333333335,0)" xlink:href="#L"/></g><path d="M24 0v-248h52V0H24" id="U"/><path d="M76-208v77h127v40H76V0H24v-248h183v40H76" id="V"/><g id="p"><use transform="matrix(0.06172839506172839,0,0,0.06172839506172839,0,0)" xlink:href="#U"/><use transform="matrix(0.06172839506172839,0,0,0.06172839506172839,6.172839506172839,0)" xlink:href="#V"/></g><path d="M24 0v-248h195v40H76v63h132v40H76v65h150V0H24" id="W"/><path d="M84 4C32 4 15-41 15-95c0-55 18-99 73-99 29 0 47 12 58 34l2-30h48l-1 265h-49V-32C136-9 114 4 84 4zm21-34c32 0 41-29 41-66 0-36-9-64-40-64-33 0-39 30-40 65 0 43 13 65 39 65" id="X"/><path d="M85 4C-2 5 27-109 22-190h50c7 57-23 150 33 157 60-5 35-97 40-157h50l1 190h-47c-2-12 1-28-3-38-12 25-28 42-61 42" id="Y"/><path d="M133-34C117-15 103 5 69 4 32 3 11-16 11-54c-1-60 55-63 116-61 1-26-3-47-28-47-18 1-26 9-28 27l-52-2c7-38 36-58 82-57s74 22 75 68l1 82c-1 14 12 18 25 15v27c-30 8-71 5-69-32zm-48 3c29 0 43-24 42-57-32 0-66-3-65 30 0 17 8 27 23 27" id="Z"/><path d="M25 0v-261h50V0H25" id="aa"/><g id="q"><use transform="matrix(0.06172839506172839,0,0,0.06172839506172839,0,0)" xlink:href="#W"/><use transform="matrix(0.06172839506172839,0,0,0.06172839506172839,14.814814814814813,0)" xlink:href="#X"/><use transform="matrix(0.06172839506172839,0,0,0.06172839506172839,28.33333333333333,0)" xlink:href="#Y"/><use transform="matrix(0.06172839506172839,0,0,0.06172839506172839,41.85185185185185,0)" xlink:href="#Z"/><use transform="matrix(0.06172839506172839,0,0,0.06172839506172839,54.197530864197525,0)" xlink:href="#aa"/></g><path d="M115-194c55 1 70 41 70 98S169 2 115 4C84 4 66-9 55-30l1 105H24l-1-265h31l2 30c10-21 28-34 59-34zm-8 174c40 0 45-34 45-75s-6-73-45-74c-42 0-51 32-51 76 0 43 10 73 51 73" id="ab"/><g id="r"><use transform="matrix(0.05925925925925927,0,0,0.05925925925925927,0,0)" xlink:href="#P"/><use transform="matrix(0.05925925925925927,0,0,0.05925925925925927,15.34814814814815,0)" xlink:href="#T"/><use transform="matrix(0.05925925925925927,0,0,0.05925925925925927,27.200000000000003,0)" xlink:href="#A"/><use transform="matrix(0.05925925925925927,0,0,0.05925925925925927,34.25185185185185,0)" xlink:href="#A"/><use transform="matrix(0.05925925925925927,0,0,0.05925925925925927,41.303703703703704,0)" xlink:href="#M"/><use transform="matrix(0.05925925925925927,0,0,0.05925925925925927,53.15555555555556,0)" xlink:href="#ab"/><use transform="matrix(0.05925925925925927,0,0,0.05925925925925927,65.00740740740741,0)" xlink:href="#y"/><use transform="matrix(0.05925925925925927,0,0,0.05925925925925927,70.93333333333334,0)" xlink:href="#C"/><use transform="matrix(0.05925925925925927,0,0,0.05925925925925927,82.78518518518518,0)" xlink:href="#H"/></g><g id="s"><use transform="matrix(0.05925925925925927,0,0,0.05925925925925927,0,0)" xlink:href="#D"/><use transform="matrix(0.05925925925925927,0,0,0.05925925925925927,5.9259259259259265,0)" xlink:href="#E"/><use transform="matrix(0.05925925925925927,0,0,0.05925925925925927,10.607407407407408,0)" xlink:href="#F"/><use transform="matrix(0.05925925925925927,0,0,0.05925925925925927,15.288888888888891,0)" xlink:href="#C"/></g><path fill="#e81313" d="M175 0L67-191c6 58 2 128 3 191H24v-248h59L193-55c-6-58-2-129-3-193h46V0h-61" id="ac"/><path fill="#e81313" d="M110-194c64 0 96 36 96 99 0 64-35 99-97 99-61 0-95-36-95-99 0-62 34-99 96-99zm-1 164c35 0 45-28 45-65 0-40-10-65-43-65-34 0-45 26-45 65 0 36 10 65 43 65" id="ad"/><g id="t"><use transform="matrix(0.04938271604938272,0,0,0.04938271604938272,0,0)" xlink:href="#ac"/><use transform="matrix(0.04938271604938272,0,0,0.04938271604938272,12.790123456790125,0)" xlink:href="#ad"/></g><path fill="#008a0e" d="M146-102V0H94v-102L6-248h54l60 105 60-105h54" id="ae"/><path fill="#008a0e" d="M24 0v-248h195v40H76v63h132v40H76v65h150V0H24" id="af"/><path fill="#008a0e" d="M169-182c-1-43-94-46-97-3 18 66 151 10 154 114 3 95-165 93-204 36-6-8-10-19-12-30l50-8c3 46 112 56 116 5-17-69-150-10-154-114-4-87 153-88 188-35 5 8 8 18 10 28" id="ag"/><g id="u"><use transform="matrix(0.04938271604938272,0,0,0.04938271604938272,0,0)" xlink:href="#ae"/><use transform="matrix(0.04938271604938272,0,0,0.04938271604938272,11.851851851851853,0)" xlink:href="#af"/><use transform="matrix(0.04938271604938272,0,0,0.04938271604938272,23.703703703703706,0)" xlink:href="#ag"/></g><path d="M137 0h-34L2-248h35l83 218 83-218h36" id="ah"/><g id="v"><use transform="matrix(0.06172839506172839,0,0,0.06172839506172839,0,0)" xlink:href="#ah"/><use transform="matrix(0.06172839506172839,0,0,0.06172839506172839,13.148148148148147,0)" xlink:href="#z"/><use transform="matrix(0.06172839506172839,0,0,0.06172839506172839,25.493827160493826,0)" xlink:href="#F"/><use transform="matrix(0.06172839506172839,0,0,0.06172839506172839,30.370370370370367,0)" xlink:href="#E"/><use transform="matrix(0.06172839506172839,0,0,0.06172839506172839,35.24691358024691,0)" xlink:href="#H"/><use transform="matrix(0.06172839506172839,0,0,0.06172839506172839,47.59259259259259,0)" xlink:href="#z"/><use transform="matrix(0.06172839506172839,0,0,0.06172839506172839,59.938271604938265,0)" xlink:href="#y"/><use transform="matrix(0.06172839506172839,0,0,0.06172839506172839,66.1111111111111,0)" xlink:href="#C"/><use transform="matrix(0.06172839506172839,0,0,0.06172839506172839,78.45679012345678,0)" xlink:href="#H"/></g><g id="w"><use transform="matrix(0.06172839506172839,0,0,0.06172839506172839,0,0)" xlink:href="#D"/><use transform="matrix(0.06172839506172839,0,0,0.06172839506172839,6.172839506172839,0)" xlink:href="#E"/><use transform="matrix(0.06172839506172839,0,0,0.06172839506172839,11.049382716049383,0)" xlink:href="#F"/><use transform="matrix(0.06172839506172839,0,0,0.06172839506172839,15.925925925925926,0)" xlink:href="#C"/></g></defs></g></svg>