<svg xmlns="http://www.w3.org/2000/svg" xmlns:xlink="http://www.w3.org/1999/xlink" xmlns:lucid="lucid" width="1174.6" height="727.5"><g transform="translate(3710.4757569030844 -623.6065460337844)" lucid:page-tab-id="0_0"><path d="M-3706.98 1033.17v-46.33a6 6 0 0 1 6-6h1155.6a6 6 0 0 1 6 6v46.33z" stroke="#54c45e" stroke-width="7" fill="#54c45e"/><path d="M-2539.38 1033.17v308.44a6 6 0 0 1-6 6h-1155.6a6 6 0 0 1-6-6v-308.43z" stroke="#54c45e" stroke-width="7" fill="#f2f3f5"/><use xlink:href="#a" transform="matrix(1,0,0,1,-3706.9757569030844,980.8386656737671) translate(510.71604938271605 32.72222222222222)"/><path d="M-3031.4 1054.84c16.56 0 30 13.43 30 30v94.26c0 16.57-13.44 30-30 30h-183.54c-16.57 0-30-13.43-30-30v-94.26c0-16.57 13.43-30 30-30z" stroke="#000" stroke-opacity="0" stroke-width="3" fill="#54c45e"/><path d="M-3420.44 1054.84c16.57 0 30 13.43 30 30v94.26c0 16.57-13.43 30-30 30h-183.53c-16.57 0-30-13.43-30-30v-94.26c0-16.57 13.43-30 30-30zM-2642.38 1054.88c16.57 0 30 13.43 30 30v94.27c0 16.56-13.43 30-30 30h-183.53c-16.58 0-30-13.44-30-30v-94.27c0-16.57 13.42-30 30-30z" stroke="#000" stroke-opacity="0" stroke-width="3" fill="#6db1ff"/><path d="M-3706.98 731.67v-47.4a6 6 0 0 1 6-6h308.93a6 6 0 0 1 6 6v47.4z" stroke="#54c45e" stroke-width="7" fill="#54c45e"/><path d="M-3386.05 731.67V931.9a6 6 0 0 1-6 6h-308.93a6 6 0 0 1-6-6V731.67z" stroke="#54c45e" stroke-width="7" fill="#f2f3f5"/><use xlink:href="#b" transform="matrix(1,0,0,1,-3706.9757569030844,678.273212700451) translate(59.34444444444446 33.4)"/><path d="M-3332.18 731.67v-47.4a6 6 0 0 1 6-6h351.95a6 6 0 0 1 6 6v47.4z" stroke="#54c45e" stroke-width="7" fill="#54c45e"/><path d="M-2968.23 731.67V931.9a6 6 0 0 1-6 6h-351.95a6 6 0 0 1-6-6V731.67z" stroke="#54c45e" stroke-width="7" fill="#f2f3f5"/><use xlink:href="#c" transform="matrix(1,0,0,1,-3332.1797900001566,678.273212700451) translate(48.133333333333326 33.4)"/><use xlink:href="#d" transform="matrix(1,0,0,1,-3332.1797900001566,678.273212700451) translate(190.17777777777775 33.4)"/><path d="M-2914.37 731.67v-47.4a6 6 0 0 1 6-6h363a6 6 0 0 1 6 6v47.4z" stroke="#54c45e" stroke-width="7" fill="#54c45e"/><path d="M-2539.38 731.67v200.05a6 6 0 0 1-6 6h-363a6 6 0 0 1-6-6V731.66z" stroke="#54c45e" stroke-width="7" fill="#f2f3f5"/><use xlink:href="#e" transform="matrix(1,0,0,1,-2914.368048517231,678.273212700451) translate(56.344444444444434 33.4)"/><use xlink:href="#f" transform="matrix(1,0,0,1,-2914.368048517231,678.273212700451) translate(219.63333333333333 33.4)"/><path d="M-3196.4 1086.1a6 6 0 0 1 6-6h134.45a6 6 0 0 1 6 6v101.45a6 6 0 0 1-6 6h-134.45a6 6 0 0 1-6-6z" fill="none"/><use xlink:href="#g" transform="matrix(1,0,0,1,-3196.4009853720568,1080.1053457029668) translate(43.87037037037037 85.33333333333334)"/><path d="M-3550.66 1078.9v12.62h-7.32v4.78h7.32v7.96h-7.32v4.67h7.32v8.07h-7.32v4.67h7.32v7.96h-7.32v4.67h7.32v7.96h-7.32v4.67h7.32v8.07h-7.32v4.67h7.32v7.96h-7.32v4.78h7.32v12.64h84.23V1078.9zm79.65 101.47h-75.08v-7.96h7.23v-4.77h-7.23v-7.96h7.23V1155h-7.23v-8.07h7.23v-4.67h-7.23v-7.96h7.23v-4.67h-7.23v-7.96h7.23V1117h-7.23v-8.07h7.23v-4.67h-7.23v-7.96h7.23v-4.78h-7.23v-7.96h75.07z" stroke="#fff" stroke-opacity="0" stroke-width="3" fill="#fff"/><path d="M-3529.58 1106.94h46.42v4.68h-46.42v-4.68zM-3529.58 1137.65h23.2v4.68h-23.2v-4.68zM-3529.58 1091.57h46.42v4.68h-46.42v-4.68zM-3529.58 1122.3h46.42v4.68h-46.42v-4.67z" stroke="#fff" stroke-opacity="0" stroke-width="3" fill="#fff"/><path d="M-3633.97 1251.84a6 6 0 0 1 6-6h231.53a6 6 0 0 1 6 6v46.78a6 6 0 0 1-6 6h-231.53a6 6 0 0 1-6-6z" stroke="#fff" stroke-width="7" fill="#6db1ff"/><use xlink:href="#h" transform="matrix(1,0,0,1,-3621.796526049335,1248.7807430432338) translate(58.45679012345679 31.02777777777778)"/><use xlink:href="#i" transform="matrix(1,0,0,1,-3621.796526049335,1248.7807430432338) translate(117.65432098765433 31.02777777777778)"/><path d="M-3244.94 1251.84a6 6 0 0 1 6-6h231.53a6 6 0 0 1 6 6v46.78a6 6 0 0 1-6 6h-231.54a6 6 0 0 1-6-6z" stroke="#fff" stroke-width="7" fill="#54c45e"/><use xlink:href="#j" transform="matrix(1,0,0,1,-3232.766526868735,1248.7807430432338) translate(33.08641975308642 31.02777777777778)"/><use xlink:href="#k" transform="matrix(1,0,0,1,-3232.766526868735,1248.7807430432338) translate(93.45679012345678 31.02777777777778)"/><path d="M-2855.9 1251.84a6 6 0 0 1 6-6h231.52a6 6 0 0 1 6 6v46.78a6 6 0 0 1-6 6h-231.53a6 6 0 0 1-6-6z" stroke="#fff" stroke-width="7" fill="#6db1ff"/><use xlink:href="#l" transform="matrix(1,0,0,1,-2843.7365276881355,1248.7807430432338) translate(44.93827160493828 31.02777777777778)"/><use xlink:href="#i" transform="matrix(1,0,0,1,-2843.7365276881355,1248.7807430432338) translate(131.17283950617286 31.02777777777778)"/><path d="M-2842.95 1080.02a6 6 0 0 1 6-6h205.6a6 6 0 0 1 6 6v107.53a6 6 0 0 1-6 6h-205.6a6 6 0 0 1-6-6z" fill="none"/><use xlink:href="#m" transform="matrix(1,0,0,1,-2842.9481074643354,1074.0197225853296) translate(15.820987654321002 34.285714285714285)"/><use xlink:href="#n" transform="matrix(1,0,0,1,-2842.9481074643354,1074.0197225853296) translate(13.475308641975332 64.44444444444446)"/><use xlink:href="#o" transform="matrix(1,0,0,1,-2842.9481074643354,1074.0197225853296) translate(15.234567901234584 94.60317460317461)"/><path d="M-3385.44 1131.97h105.05" stroke="#6db1ff" stroke-width="10" fill="none"/><path d="M-3385.3 1136.94h-5.14V1127h5.13z" stroke="#6db1ff" stroke-width=".05" fill="#6db1ff"/><path d="M-3261.12 1131.97l-14.27 4.63v-9.27z" stroke="#6db1ff" stroke-width="10" fill="#6db1ff"/><path d="M-2996.4 1131.97h105.03" stroke="#54c45e" stroke-width="10" fill="none"/><path d="M-2996.28 1136.94h-5.13V1127h5.12z" stroke="#54c45e" stroke-width=".05" fill="#54c45e"/><path d="M-2872.1 1131.98l-14.26 4.63v-9.26z" stroke="#54c45e" stroke-width="10" fill="#54c45e"/><path d="M-3688.85 760.93a6 6 0 0 1 6-6h286.4a6 6 0 0 1 6 6V899.3a6 6 0 0 1-6 6h-286.4a6 6 0 0 1-6-6z" fill="none"/><g><use xlink:href="#p" transform="matrix(1,0,0,1,-3688.852265126793,754.9333697773632) translate(0 21.333333333333336)"/><use xlink:href="#q" transform="matrix(1,0,0,1,-3688.852265126793,754.9333697773632) translate(53.25925925925927 21.333333333333336)"/><use xlink:href="#r" transform="matrix(1,0,0,1,-3688.852265126793,754.9333697773632) translate(125.77777777777779 21.333333333333336)"/><use xlink:href="#s" transform="matrix(1,0,0,1,-3688.852265126793,754.9333697773632) translate(190.8888888888889 21.333333333333336)"/><use xlink:href="#t" transform="matrix(1,0,0,1,-3688.852265126793,754.9333697773632) translate(0 53.333333333333336)"/><use xlink:href="#u" transform="matrix(1,0,0,1,-3688.852265126793,754.9333697773632) translate(88.74074074074075 53.333333333333336)"/><use xlink:href="#v" transform="matrix(1,0,0,1,-3688.852265126793,754.9333697773632) translate(192.37037037037038 53.333333333333336)"/><use xlink:href="#q" transform="matrix(1,0,0,1,-3688.852265126793,754.9333697773632) translate(0 85.33333333333334)"/><use xlink:href="#w" transform="matrix(1,0,0,1,-3688.852265126793,754.9333697773632) translate(72.51851851851852 85.33333333333334)"/><use xlink:href="#x" transform="matrix(1,0,0,1,-3688.852265126793,754.9333697773632) translate(137.7037037037037 85.33333333333334)"/></g><path d="M-3314.06 760.93a6 6 0 0 1 6-6h323.2a6 6 0 0 1 6 6V915.3a6 6 0 0 1-6 6h-323.2a6 6 0 0 1-6-6z" fill="none"/><g><use xlink:href="#p" transform="matrix(1,0,0,1,-3314.0562982238644,754.9333697773632) translate(0 21.333333333333336)"/><use xlink:href="#y" transform="matrix(1,0,0,1,-3314.0562982238644,754.9333697773632) translate(53.25925925925927 21.333333333333336)"/><use xlink:href="#z" transform="matrix(1,0,0,1,-3314.0562982238644,754.9333697773632) translate(153.92592592592598 21.333333333333336)"/><use xlink:href="#A" transform="matrix(1,0,0,1,-3314.0562982238644,754.9333697773632) translate(262.00000000000006 21.333333333333336)"/><use xlink:href="#r" transform="matrix(1,0,0,1,-3314.0562982238644,754.9333697773632) translate(0 53.333333333333336)"/><use xlink:href="#B" transform="matrix(1,0,0,1,-3314.0562982238644,754.9333697773632) translate(65.11111111111111 53.333333333333336)"/><use xlink:href="#C" transform="matrix(1,0,0,1,-3314.0562982238644,754.9333697773632) translate(115.40740740740742 53.333333333333336)"/><use xlink:href="#D" transform="matrix(1,0,0,1,-3314.0562982238644,754.9333697773632) translate(137.62962962962965 53.333333333333336)"/><use xlink:href="#E" transform="matrix(1,0,0,1,-3314.0562982238644,754.9333697773632) translate(210.22222222222223 53.333333333333336)"/><use xlink:href="#F" transform="matrix(1,0,0,1,-3314.0562982238644,754.9333697773632) translate(262.0740740740741 53.333333333333336)"/><use xlink:href="#G" transform="matrix(1,0,0,1,-3314.0562982238644,754.9333697773632) translate(0 85.33333333333334)"/><use xlink:href="#H" transform="matrix(1,0,0,1,-3314.0562982238644,754.9333697773632) translate(133.03703703703704 85.33333333333334)"/><use xlink:href="#I" transform="matrix(1,0,0,1,-3314.0562982238644,754.9333697773632) translate(162.66666666666669 85.33333333333334)"/><use xlink:href="#v" transform="matrix(1,0,0,1,-3314.0562982238644,754.9333697773632) translate(258.81481481481484 85.33333333333334)"/><use xlink:href="#w" transform="matrix(1,0,0,1,-3314.0562982238644,754.9333697773632) translate(0 117.33333333333334)"/><use xlink:href="#J" transform="matrix(1,0,0,1,-3314.0562982238644,754.9333697773632) translate(65.18518518518519 117.33333333333334)"/><use xlink:href="#H" transform="matrix(1,0,0,1,-3314.0562982238644,754.9333697773632) translate(128.8888888888889 117.33333333333334)"/><use xlink:href="#K" transform="matrix(1,0,0,1,-3314.0562982238644,754.9333697773632) translate(158.51851851851853 117.33333333333334)"/><use xlink:href="#L" transform="matrix(1,0,0,1,-3314.0562982238644,754.9333697773632) translate(202.962962962963 117.33333333333334)"/><use xlink:href="#M" transform="matrix(1,0,0,1,-3314.0562982238644,754.9333697773632) translate(0 149.33333333333334)"/></g><path d="M-2896.24 753.27a6 6 0 0 1 6-6h327.75a6 6 0 0 1 6 6V915.3a6 6 0 0 1-6 6h-327.74a6 6 0 0 1-6-6z" fill="none"/><g><use xlink:href="#N" transform="matrix(1,0,0,1,-2896.2445567409386,747.267580897236) translate(0 21.333333333333336)"/><use xlink:href="#O" transform="matrix(1,0,0,1,-2896.2445567409386,747.267580897236) translate(142.00000000000003 21.333333333333336)"/><use xlink:href="#K" transform="matrix(1,0,0,1,-2896.2445567409386,747.267580897236) translate(171.62962962962968 21.333333333333336)"/><use xlink:href="#P" transform="matrix(1,0,0,1,-2896.2445567409386,747.267580897236) translate(216.07407407407413 21.333333333333336)"/><use xlink:href="#O" transform="matrix(1,0,0,1,-2896.2445567409386,747.267580897236) translate(270.8148148148149 21.333333333333336)"/><use xlink:href="#v" transform="matrix(1,0,0,1,-2896.2445567409386,747.267580897236) translate(300.4444444444445 21.333333333333336)"/><use xlink:href="#Q" transform="matrix(1,0,0,1,-2896.2445567409386,747.267580897236) translate(0 53.333333333333336)"/><use xlink:href="#K" transform="matrix(1,0,0,1,-2896.2445567409386,747.267580897236) translate(72.51851851851852 53.333333333333336)"/><use xlink:href="#w" transform="matrix(1,0,0,1,-2896.2445567409386,747.267580897236) translate(116.96296296296296 53.333333333333336)"/><use xlink:href="#R" transform="matrix(1,0,0,1,-2896.2445567409386,747.267580897236) translate(182.14814814814815 53.333333333333336)"/><use xlink:href="#s" transform="matrix(1,0,0,1,-2896.2445567409386,747.267580897236) translate(253.18518518518522 53.333333333333336)"/><use xlink:href="#t" transform="matrix(1,0,0,1,-2896.2445567409386,747.267580897236) translate(0 85.33333333333334)"/><use xlink:href="#S" transform="matrix(1,0,0,1,-2896.2445567409386,747.267580897236) translate(88.74074074074075 85.33333333333334)"/><use xlink:href="#C" transform="matrix(1,0,0,1,-2896.2445567409386,747.267580897236) translate(125.77777777777779 85.33333333333334)"/><use xlink:href="#T" transform="matrix(1,0,0,1,-2896.2445567409386,747.267580897236) translate(148 85.33333333333334)"/><use xlink:href="#U" transform="matrix(1,0,0,1,-2896.2445567409386,747.267580897236) translate(244.14814814814815 85.33333333333334)"/><use xlink:href="#V" transform="matrix(1,0,0,1,-2896.2445567409386,747.267580897236) translate(0 117.33333333333334)"/><use xlink:href="#W" transform="matrix(1,0,0,1,-2896.2445567409386,747.267580897236) translate(57.62962962962963 117.33333333333334)"/><use xlink:href="#X" transform="matrix(1,0,0,1,-2896.2445567409386,747.267580897236) translate(143.4814814814815 117.33333333333334)"/><use xlink:href="#Y" transform="matrix(1,0,0,1,-2896.2445567409386,747.267580897236) translate(210.07407407407408 117.33333333333334)"/><use xlink:href="#Z" transform="matrix(1,0,0,1,-2896.2445567409386,747.267580897236) translate(288.51851851851853 117.33333333333334)"/><use xlink:href="#aa" transform="matrix(1,0,0,1,-2896.2445567409386,747.267580897236) translate(0 149.33333333333334)"/><use xlink:href="#E" transform="matrix(1,0,0,1,-2896.2445567409386,747.267580897236) translate(106.51851851851852 149.33333333333334)"/><use xlink:href="#ab" transform="matrix(1,0,0,1,-2896.2445567409386,747.267580897236) translate(158.37037037037038 149.33333333333334)"/></g><defs><path fill="#fff" d="M140-251c80 0 125 45 125 126S219 4 139 4C58 4 15-44 15-125s44-126 125-126zm-1 214c52 0 73-35 73-88 0-50-21-86-72-86-52 0-73 35-73 86s22 88 72 88" id="ac"/><path fill="#fff" d="M135-194c53 0 70 44 70 98 0 56-19 98-73 100-31 1-45-17-59-34 3 33 2 69 2 105H25l-1-265h48c2 10 0 23 3 31 11-24 29-35 60-35zM114-30c33 0 39-31 40-66 0-38-9-64-40-64-56 0-55 130 0 130" id="ad"/><path fill="#fff" d="M185-48c-13 30-37 53-82 52C43 2 14-33 14-96s30-98 90-98c62 0 83 45 84 108H66c0 31 8 55 39 56 18 0 30-7 34-22zm-45-69c5-46-57-63-70-21-2 6-4 13-4 21h74" id="ae"/><path fill="#fff" d="M135-150c-39-12-60 13-60 57V0H25l-1-190h47c2 13-1 29 3 40 6-28 27-53 61-41v41" id="af"/><path fill="#fff" d="M133-34C117-15 103 5 69 4 32 3 11-16 11-54c-1-60 55-63 116-61 1-26-3-47-28-47-18 1-26 9-28 27l-52-2c7-38 36-58 82-57s74 22 75 68l1 82c-1 14 12 18 25 15v27c-30 8-71 5-69-32zm-48 3c29 0 43-24 42-57-32 0-66-3-65 30 0 17 8 27 23 27" id="ag"/><path fill="#fff" d="M115-3C79 11 28 4 28-45v-112H4v-33h27l15-45h31v45h36v33H77v99c-1 23 16 31 38 25v30" id="ah"/><path fill="#fff" d="M25-224v-37h50v37H25zM25 0v-190h50V0H25" id="ai"/><path fill="#fff" d="M110-194c64 0 96 36 96 99 0 64-35 99-97 99-61 0-95-36-95-99 0-62 34-99 96-99zm-1 164c35 0 45-28 45-65 0-40-10-65-43-65-34 0-45 26-45 65 0 36 10 65 43 65" id="aj"/><path fill="#fff" d="M135-194c87-1 58 113 63 194h-50c-7-57 23-157-34-157-59 0-34 97-39 157H25l-1-190h47c2 12-1 28 3 38 12-26 28-41 61-42" id="ak"/><g id="a"><use transform="matrix(0.08641975308641976,0,0,0.08641975308641976,0,0)" xlink:href="#ac"/><use transform="matrix(0.08641975308641976,0,0,0.08641975308641976,24.19753086419753,0)" xlink:href="#ad"/><use transform="matrix(0.08641975308641976,0,0,0.08641975308641976,43.123456790123456,0)" xlink:href="#ae"/><use transform="matrix(0.08641975308641976,0,0,0.08641975308641976,60.407407407407405,0)" xlink:href="#af"/><use transform="matrix(0.08641975308641976,0,0,0.08641975308641976,72.50617283950618,0)" xlink:href="#ag"/><use transform="matrix(0.08641975308641976,0,0,0.08641975308641976,89.79012345679013,0)" xlink:href="#ah"/><use transform="matrix(0.08641975308641976,0,0,0.08641975308641976,100.07407407407409,0)" xlink:href="#ai"/><use transform="matrix(0.08641975308641976,0,0,0.08641975308641976,108.71604938271604,0)" xlink:href="#aj"/><use transform="matrix(0.08641975308641976,0,0,0.08641975308641976,127.64197530864197,0)" xlink:href="#ak"/></g><path fill="#fff" d="M24-248c120-7 223 5 221 122C244-46 201 0 124 0H24v-248zM76-40c74 7 117-18 117-86 0-67-45-88-117-82v168" id="al"/><path fill="#fff" d="M220-157c-53 9-28 100-34 157h-49v-107c1-27-5-49-29-50C55-147 81-57 75 0H25l-1-190h47c2 12-1 28 3 38 10-53 101-56 108 0 13-22 24-43 59-42 82 1 51 116 57 194h-49v-107c-1-25-5-48-29-50" id="am"/><path fill="#fff" d="M137-138c1-29-70-34-71-4 15 46 118 7 119 86 1 83-164 76-172 9l43-7c4 19 20 25 44 25 33 8 57-30 24-41C81-84 22-81 20-136c-2-80 154-74 161-7" id="an"/><path fill="#fff" d="M190-63c-7 42-38 67-86 67-59 0-84-38-90-98-12-110 154-137 174-36l-49 2c-2-19-15-32-35-32-30 0-35 28-38 64-6 74 65 87 74 30" id="ao"/><g id="b"><use transform="matrix(0.08888888888888889,0,0,0.08888888888888889,0,0)" xlink:href="#al"/><use transform="matrix(0.08888888888888889,0,0,0.08888888888888889,23.022222222222222,0)" xlink:href="#ae"/><use transform="matrix(0.08888888888888889,0,0,0.08888888888888889,40.8,0)" xlink:href="#ah"/><use transform="matrix(0.08888888888888889,0,0,0.08888888888888889,51.37777777777777,0)" xlink:href="#ae"/><use transform="matrix(0.08888888888888889,0,0,0.08888888888888889,69.15555555555555,0)" xlink:href="#af"/><use transform="matrix(0.08888888888888889,0,0,0.08888888888888889,81.6,0)" xlink:href="#am"/><use transform="matrix(0.08888888888888889,0,0,0.08888888888888889,110.04444444444442,0)" xlink:href="#ai"/><use transform="matrix(0.08888888888888889,0,0,0.08888888888888889,118.93333333333332,0)" xlink:href="#ak"/><use transform="matrix(0.08888888888888889,0,0,0.08888888888888889,138.39999999999998,0)" xlink:href="#ai"/><use transform="matrix(0.08888888888888889,0,0,0.08888888888888889,147.28888888888886,0)" xlink:href="#an"/><use transform="matrix(0.08888888888888889,0,0,0.08888888888888889,165.06666666666663,0)" xlink:href="#ah"/><use transform="matrix(0.08888888888888889,0,0,0.08888888888888889,175.64444444444442,0)" xlink:href="#ai"/><use transform="matrix(0.08888888888888889,0,0,0.08888888888888889,184.5333333333333,0)" xlink:href="#ao"/></g><path fill="#fff" d="M14-72v-43h91v43H14" id="ap"/><path fill="#fff" d="M231 0h-52l-39-155L100 0H48L-1-190h46L77-45c9-52 24-97 36-145h53l37 145 32-145h46" id="aq"/><path fill="#fff" d="M123 10C108 53 80 86 19 72V37c35 8 53-11 59-39L3-190h52l48 148c12-52 28-100 44-148h51" id="ar"/><g id="c"><use transform="matrix(0.08888888888888889,0,0,0.08888888888888889,0,0)" xlink:href="#ac"/><use transform="matrix(0.08888888888888889,0,0,0.08888888888888889,24.88888888888889,0)" xlink:href="#ak"/><use transform="matrix(0.08888888888888889,0,0,0.08888888888888889,44.355555555555554,0)" xlink:href="#ae"/><use transform="matrix(0.08888888888888889,0,0,0.08888888888888889,62.13333333333333,0)" xlink:href="#ap"/><use transform="matrix(0.08888888888888889,0,0,0.08888888888888889,72.71111111111111,0)" xlink:href="#aq"/><use transform="matrix(0.08888888888888889,0,0,0.08888888888888889,97.60000000000001,0)" xlink:href="#ag"/><use transform="matrix(0.08888888888888889,0,0,0.08888888888888889,115.37777777777777,0)" xlink:href="#ar"/></g><path fill="#fff" d="M121-226c-27-7-43 5-38 36h38v33H83V0H34v-157H6v-33h28c-9-59 32-81 87-68v32" id="as"/><path fill="#fff" d="M85 4C-2 5 27-109 22-190h50c7 57-23 150 33 157 60-5 35-97 40-157h50l1 190h-47c-2-12 1-28-3-38-12 25-28 42-61 42" id="at"/><g id="d"><use transform="matrix(0.08888888888888889,0,0,0.08888888888888889,0,0)" xlink:href="#as"/><use transform="matrix(0.08888888888888889,0,0,0.08888888888888889,10.577777777777778,0)" xlink:href="#at"/><use transform="matrix(0.08888888888888889,0,0,0.08888888888888889,30.044444444444444,0)" xlink:href="#ak"/><use transform="matrix(0.08888888888888889,0,0,0.08888888888888889,49.51111111111111,0)" xlink:href="#ao"/><use transform="matrix(0.08888888888888889,0,0,0.08888888888888889,67.28888888888889,0)" xlink:href="#ah"/><use transform="matrix(0.08888888888888889,0,0,0.08888888888888889,77.86666666666667,0)" xlink:href="#ai"/><use transform="matrix(0.08888888888888889,0,0,0.08888888888888889,86.75555555555556,0)" xlink:href="#aj"/><use transform="matrix(0.08888888888888889,0,0,0.08888888888888889,106.22222222222223,0)" xlink:href="#ak"/></g><path fill="#fff" d="M76-208v77h127v40H76V0H24v-248h183v40H76" id="au"/><path fill="#fff" d="M144 0l-44-69L55 0H2l70-98-66-92h53l41 62 40-62h54l-67 91 71 99h-54" id="av"/><path fill="#fff" d="M88-194c31-1 46 15 58 34l-1-101h50l1 261h-48c-2-10 0-23-3-31C134-8 116 4 84 4 32 4 16-41 15-95c0-56 19-97 73-99zm17 164c33 0 40-30 41-66 1-37-9-64-41-64s-38 30-39 65c0 43 13 65 39 65" id="aw"/><path fill="#fff" d="M12 0v-35l95-120H19v-35h142v35L67-36h103V0H12" id="ax"/><g id="e"><use transform="matrix(0.08888888888888889,0,0,0.08888888888888889,0,0)" xlink:href="#au"/><use transform="matrix(0.08888888888888889,0,0,0.08888888888888889,19.46666666666667,0)" xlink:href="#ai"/><use transform="matrix(0.08888888888888889,0,0,0.08888888888888889,28.355555555555558,0)" xlink:href="#av"/><use transform="matrix(0.08888888888888889,0,0,0.08888888888888889,46.13333333333333,0)" xlink:href="#ae"/><use transform="matrix(0.08888888888888889,0,0,0.08888888888888889,63.91111111111111,0)" xlink:href="#aw"/><use transform="matrix(0.08888888888888889,0,0,0.08888888888888889,83.3777777777778,0)" xlink:href="#ap"/><use transform="matrix(0.08888888888888889,0,0,0.08888888888888889,93.95555555555558,0)" xlink:href="#an"/><use transform="matrix(0.08888888888888889,0,0,0.08888888888888889,111.73333333333336,0)" xlink:href="#ai"/><use transform="matrix(0.08888888888888889,0,0,0.08888888888888889,120.62222222222222,0)" xlink:href="#ax"/><use transform="matrix(0.08888888888888889,0,0,0.08888888888888889,136.62222222222223,0)" xlink:href="#ae"/></g><g id="f"><use transform="matrix(0.08888888888888889,0,0,0.08888888888888889,0,0)" xlink:href="#aj"/><use transform="matrix(0.08888888888888889,0,0,0.08888888888888889,19.46666666666667,0)" xlink:href="#at"/><use transform="matrix(0.08888888888888889,0,0,0.08888888888888889,38.93333333333334,0)" xlink:href="#ah"/><use transform="matrix(0.08888888888888889,0,0,0.08888888888888889,49.51111111111111,0)" xlink:href="#ad"/><use transform="matrix(0.08888888888888889,0,0,0.08888888888888889,68.97777777777779,0)" xlink:href="#at"/><use transform="matrix(0.08888888888888889,0,0,0.08888888888888889,88.44444444444446,0)" xlink:href="#ah"/></g><path fill="#fff" d="M160-152l-12 59h37v26h-43L128 0h-28l14-67H60L46 0H20l13-67H6v-26h33l13-59H15v-26h42l15-67h27l-15 67h54l15-67h27l-14 67h28v26h-34zm-81 0L66-93h55l12-59H79" id="ay"/><use transform="matrix(0.29629629629629634,0,0,0.29629629629629634,0,0)" xlink:href="#ay" id="g"/><path fill="#fff" d="M24-248c93 1 206-16 204 79-1 75-69 88-152 82V0H24v-248zm52 121c47 0 100 7 100-41 0-47-54-39-100-39v80" id="az"/><path fill="#fff" d="M25 0v-261h50V0H25" id="aA"/><g id="h"><use transform="matrix(0.06172839506172839,0,0,0.06172839506172839,0,0)" xlink:href="#az"/><use transform="matrix(0.06172839506172839,0,0,0.06172839506172839,14.814814814814813,0)" xlink:href="#aA"/><use transform="matrix(0.06172839506172839,0,0,0.06172839506172839,20.98765432098765,0)" xlink:href="#ag"/><use transform="matrix(0.06172839506172839,0,0,0.06172839506172839,33.33333333333333,0)" xlink:href="#ai"/><use transform="matrix(0.06172839506172839,0,0,0.06172839506172839,39.50617283950617,0)" xlink:href="#ak"/></g><path fill="#fff" d="M136-208V0H84v-208H4v-40h212v40h-80" id="aB"/><g id="i"><use transform="matrix(0.06172839506172839,0,0,0.06172839506172839,0,0)" xlink:href="#aB"/><use transform="matrix(0.06172839506172839,0,0,0.06172839506172839,11.851851851851851,0)" xlink:href="#ae"/><use transform="matrix(0.06172839506172839,0,0,0.06172839506172839,24.19753086419753,0)" xlink:href="#av"/><use transform="matrix(0.06172839506172839,0,0,0.06172839506172839,36.54320987654321,0)" xlink:href="#ah"/></g><path fill="#fff" d="M186 0v-106H76V0H24v-248h52v99h110v-99h50V0h-50" id="aC"/><path fill="#fff" d="M114-157C55-157 80-60 75 0H25v-261h50l-1 109c12-26 28-41 61-42 86-1 58 113 63 194h-50c-7-57 23-157-34-157" id="aD"/><g id="j"><use transform="matrix(0.06172839506172839,0,0,0.06172839506172839,0,0)" xlink:href="#aC"/><use transform="matrix(0.06172839506172839,0,0,0.06172839506172839,15.987654320987653,0)" xlink:href="#ag"/><use transform="matrix(0.06172839506172839,0,0,0.06172839506172839,28.333333333333332,0)" xlink:href="#an"/><use transform="matrix(0.06172839506172839,0,0,0.06172839506172839,40.67901234567901,0)" xlink:href="#aD"/></g><g id="k"><use transform="matrix(0.06172839506172839,0,0,0.06172839506172839,0,0)" xlink:href="#au"/><use transform="matrix(0.06172839506172839,0,0,0.06172839506172839,13.518518518518517,0)" xlink:href="#at"/><use transform="matrix(0.06172839506172839,0,0,0.06172839506172839,27.037037037037035,0)" xlink:href="#ak"/><use transform="matrix(0.06172839506172839,0,0,0.06172839506172839,40.55555555555555,0)" xlink:href="#ao"/><use transform="matrix(0.06172839506172839,0,0,0.06172839506172839,52.90123456790123,0)" xlink:href="#ah"/><use transform="matrix(0.06172839506172839,0,0,0.06172839506172839,60.246913580246904,0)" xlink:href="#ai"/><use transform="matrix(0.06172839506172839,0,0,0.06172839506172839,66.41975308641975,0)" xlink:href="#aj"/><use transform="matrix(0.06172839506172839,0,0,0.06172839506172839,79.93827160493827,0)" xlink:href="#ak"/></g><g id="l"><use transform="matrix(0.06172839506172839,0,0,0.06172839506172839,0,0)" xlink:href="#aC"/><use transform="matrix(0.06172839506172839,0,0,0.06172839506172839,15.987654320987653,0)" xlink:href="#ag"/><use transform="matrix(0.06172839506172839,0,0,0.06172839506172839,28.333333333333332,0)" xlink:href="#an"/><use transform="matrix(0.06172839506172839,0,0,0.06172839506172839,40.67901234567901,0)" xlink:href="#aD"/><use transform="matrix(0.06172839506172839,0,0,0.06172839506172839,54.19753086419753,0)" xlink:href="#ae"/><use transform="matrix(0.06172839506172839,0,0,0.06172839506172839,66.54320987654322,0)" xlink:href="#aw"/></g><path fill="#fff" d="M128-127c34 4 56 21 59 58 7 91-148 94-172 28-4-9-6-17-7-26l51-5c1 24 16 35 40 36 23 0 39-12 38-36-1-31-31-36-65-34v-40c32 2 59-3 59-33 0-20-13-33-34-33s-33 13-35 32l-50-3c6-44 37-68 86-68 50 0 83 20 83 66 0 35-22 52-53 58" id="aE"/><path fill="#fff" d="M135-194c52 0 70 43 70 98 0 56-19 99-73 100-30 1-46-15-58-35L72 0H24l1-261h50v104c11-23 29-37 60-37zM114-30c31 0 40-27 40-66 0-37-7-63-39-63s-41 28-41 65c0 36 8 64 40 64" id="aF"/><path fill="#fff" d="M139-81c0-46-55-55-73-27H18l9-140h149v37H72l-4 63c44-38 133-4 122 66C201 21 21 35 11-62l49-4c5 18 15 30 39 30 26 0 40-18 40-45" id="aG"/><path fill="#fff" d="M23 0v-37h61v-169l-59 37v-38l62-41h46v211h57V0H23" id="aH"/><path fill="#fff" d="M101-251c68 0 84 54 84 127C185-50 166 4 99 4S15-52 14-124c-1-75 17-127 87-127zm-1 216c37-5 36-46 36-89s4-89-36-89c-39 0-36 45-36 89 0 43-3 85 36 89" id="aI"/><path fill="#fff" d="M115-159c48 0 72 30 72 78 0 54-30 85-83 85-64 0-91-50-91-122 0-98 58-163 141-120 15 8 21 24 27 44l-47 6c-5-31-48-31-61-4-7 14-11 33-11 60 9-17 28-27 53-27zM102-35c24 0 36-20 36-45s-11-43-37-43c-23 0-36 14-36 38 0 27 11 50 37 50" id="aJ"/><path fill="#fff" d="M182-182c0 78-84 86-111 141h115V0H12c-6-101 99-100 120-180 1-22-12-31-33-32-23 0-32 14-35 34l-49-3c5-45 32-70 84-70 51 0 83 22 83 69" id="aK"/><path fill="#fff" d="M99-251c69 0 84 53 88 123 5 99-61 162-144 118-15-8-21-25-26-45l46-6c4 31 50 33 63 7 7-15 12-36 12-60-9 18-29 28-54 28-48 0-72-32-72-82 0-55 31-83 87-83zm-1 128c24 0 37-16 37-39 0-27-10-51-37-51-25 0-35 19-35 45 0 25 10 45 35 45" id="aL"/><path fill="#fff" d="M52 0c1-96 47-148 87-207H15v-41h169v40c-36 62-79 113-81 208H52" id="aM"/><path fill="#fff" d="M165-50V0h-47v-50H5v-38l105-160h55v161h33v37h-33zm-47-37l2-116L46-87h72" id="aN"/><path fill="#fff" d="M138-131c27 9 52 24 51 61 0 53-36 74-89 74S11-19 11-69c0-35 22-54 51-61-78-25-46-121 38-121 51 0 83 19 83 66 0 30-18 49-45 54zm-38-16c24 0 32-13 32-36 1-23-11-34-32-34-22 0-33 12-32 34 0 22 9 36 32 36zm1 116c27 0 37-17 37-43 0-25-13-39-39-39-24 0-37 15-37 40 0 27 11 42 39 42" id="aO"/><g id="m"><use transform="matrix(0.06172839506172839,0,0,0.06172839506172839,0,0)" xlink:href="#aE"/><use transform="matrix(0.06172839506172839,0,0,0.06172839506172839,12.345679012345679,0)" xlink:href="#aF"/><use transform="matrix(0.06172839506172839,0,0,0.06172839506172839,25.864197530864196,0)" xlink:href="#ao"/><use transform="matrix(0.06172839506172839,0,0,0.06172839506172839,38.20987654320987,0)" xlink:href="#aG"/><use transform="matrix(0.06172839506172839,0,0,0.06172839506172839,50.55555555555555,0)" xlink:href="#aH"/><use transform="matrix(0.06172839506172839,0,0,0.06172839506172839,62.90123456790123,0)" xlink:href="#aI"/><use transform="matrix(0.06172839506172839,0,0,0.06172839506172839,75.24691358024691,0)" xlink:href="#aJ"/><use transform="matrix(0.06172839506172839,0,0,0.06172839506172839,87.5925925925926,0)" xlink:href="#aK"/><use transform="matrix(0.06172839506172839,0,0,0.06172839506172839,99.93827160493828,0)" xlink:href="#aL"/><use transform="matrix(0.06172839506172839,0,0,0.06172839506172839,112.28395061728396,0)" xlink:href="#aM"/><use transform="matrix(0.06172839506172839,0,0,0.06172839506172839,124.62962962962965,0)" xlink:href="#aE"/><use transform="matrix(0.06172839506172839,0,0,0.06172839506172839,136.97530864197532,0)" xlink:href="#ao"/><use transform="matrix(0.06172839506172839,0,0,0.06172839506172839,149.320987654321,0)" xlink:href="#aN"/><use transform="matrix(0.06172839506172839,0,0,0.06172839506172839,161.66666666666666,0)" xlink:href="#aG"/><use transform="matrix(0.06172839506172839,0,0,0.06172839506172839,174.01234567901233,0)" xlink:href="#aO"/></g><g id="n"><use transform="matrix(0.06172839506172839,0,0,0.06172839506172839,0,0)" xlink:href="#aw"/><use transform="matrix(0.06172839506172839,0,0,0.06172839506172839,13.518518518518517,0)" xlink:href="#aG"/><use transform="matrix(0.06172839506172839,0,0,0.06172839506172839,25.864197530864196,0)" xlink:href="#aw"/><use transform="matrix(0.06172839506172839,0,0,0.06172839506172839,39.382716049382715,0)" xlink:href="#ae"/><use transform="matrix(0.06172839506172839,0,0,0.06172839506172839,51.72839506172839,0)" xlink:href="#aI"/><use transform="matrix(0.06172839506172839,0,0,0.06172839506172839,64.07407407407408,0)" xlink:href="#ae"/><use transform="matrix(0.06172839506172839,0,0,0.06172839506172839,76.41975308641976,0)" xlink:href="#ag"/><use transform="matrix(0.06172839506172839,0,0,0.06172839506172839,88.76543209876544,0)" xlink:href="#aG"/><use transform="matrix(0.06172839506172839,0,0,0.06172839506172839,101.11111111111113,0)" xlink:href="#aF"/><use transform="matrix(0.06172839506172839,0,0,0.06172839506172839,114.62962962962965,0)" xlink:href="#aF"/><use transform="matrix(0.06172839506172839,0,0,0.06172839506172839,128.14814814814815,0)" xlink:href="#aF"/><use transform="matrix(0.06172839506172839,0,0,0.06172839506172839,141.66666666666666,0)" xlink:href="#aM"/><use transform="matrix(0.06172839506172839,0,0,0.06172839506172839,154.01234567901233,0)" xlink:href="#ae"/><use transform="matrix(0.06172839506172839,0,0,0.06172839506172839,166.358024691358,0)" xlink:href="#aI"/><use transform="matrix(0.06172839506172839,0,0,0.06172839506172839,178.70370370370367,0)" xlink:href="#aK"/></g><path fill="#fff" d="M24 0v-54h51V0H24" id="aP"/><g id="o"><use transform="matrix(0.06172839506172839,0,0,0.06172839506172839,0,0)" xlink:href="#aK"/><use transform="matrix(0.06172839506172839,0,0,0.06172839506172839,12.345679012345679,0)" xlink:href="#aK"/><use transform="matrix(0.06172839506172839,0,0,0.06172839506172839,24.691358024691358,0)" xlink:href="#ao"/><use transform="matrix(0.06172839506172839,0,0,0.06172839506172839,37.03703703703704,0)" xlink:href="#aw"/><use transform="matrix(0.06172839506172839,0,0,0.06172839506172839,50.55555555555556,0)" xlink:href="#aH"/><use transform="matrix(0.06172839506172839,0,0,0.06172839506172839,62.901234567901234,0)" xlink:href="#ao"/><use transform="matrix(0.06172839506172839,0,0,0.06172839506172839,75.24691358024691,0)" xlink:href="#aL"/><use transform="matrix(0.06172839506172839,0,0,0.06172839506172839,87.5925925925926,0)" xlink:href="#aI"/><use transform="matrix(0.06172839506172839,0,0,0.06172839506172839,99.93827160493828,0)" xlink:href="#ao"/><use transform="matrix(0.06172839506172839,0,0,0.06172839506172839,112.28395061728396,0)" xlink:href="#aF"/><use transform="matrix(0.06172839506172839,0,0,0.06172839506172839,125.80246913580248,0)" xlink:href="#ag"/><use transform="matrix(0.06172839506172839,0,0,0.06172839506172839,138.14814814814815,0)" xlink:href="#ae"/><use transform="matrix(0.06172839506172839,0,0,0.06172839506172839,150.49382716049382,0)" xlink:href="#aP"/><use transform="matrix(0.06172839506172839,0,0,0.06172839506172839,156.66666666666666,0)" xlink:href="#aP"/><use transform="matrix(0.06172839506172839,0,0,0.06172839506172839,162.8395061728395,0)" xlink:href="#aP"/><use transform="matrix(0.06172839506172839,0,0,0.06172839506172839,169.01234567901233,0)" xlink:href="#aP"/><use transform="matrix(0.06172839506172839,0,0,0.06172839506172839,175.18518518518516,0)" xlink:href="#aP"/><use transform="matrix(0.06172839506172839,0,0,0.06172839506172839,181.358024691358,0)" xlink:href="#aP"/></g><path fill="#4c535d" d="M127-220V0H93v-220H8v-28h204v28h-85" id="aQ"/><path fill="#4c535d" d="M106-169C34-169 62-67 57 0H25v-261h32l-1 103c12-21 28-36 61-36 89 0 53 116 60 194h-32v-121c2-32-8-49-39-48" id="aR"/><path fill="#4c535d" d="M100-194c63 0 86 42 84 106H49c0 40 14 67 53 68 26 1 43-12 49-29l28 8c-11 28-37 45-77 45C44 4 14-33 15-96c1-61 26-98 85-98zm52 81c6-60-76-77-97-28-3 7-6 17-6 28h103" id="aS"/><g id="p"><use transform="matrix(0.07407407407407408,0,0,0.07407407407407408,0,0)" xlink:href="#aQ"/><use transform="matrix(0.07407407407407408,0,0,0.07407407407407408,16.222222222222225,0)" xlink:href="#aR"/><use transform="matrix(0.07407407407407408,0,0,0.07407407407407408,31.03703703703704,0)" xlink:href="#aS"/></g><path fill="#4c535d" d="M135-143c-3-34-86-38-87 0 15 53 115 12 119 90S17 21 10-45l28-5c4 36 97 45 98 0-10-56-113-15-118-90-4-57 82-63 122-42 12 7 21 19 24 35" id="aT"/><path fill="#4c535d" d="M141-36C126-15 110 5 73 4 37 3 15-17 15-53c-1-64 63-63 125-63 3-35-9-54-41-54-24 1-41 7-42 31l-33-3c5-37 33-52 76-52 45 0 72 20 72 64v82c-1 20 7 32 28 27v20c-31 9-61-2-59-35zM48-53c0 20 12 33 32 33 41-3 63-29 60-74-43 2-92-5-92 41" id="aU"/><path fill="#4c535d" d="M210-169c-67 3-38 105-44 169h-31v-121c0-29-5-50-35-48C34-165 62-65 56 0H25l-1-190h30c1 10-1 24 2 32 10-44 99-50 107 0 11-21 27-35 58-36 85-2 47 119 55 194h-31v-121c0-29-5-49-35-48" id="aV"/><g id="q"><use transform="matrix(0.07407407407407408,0,0,0.07407407407407408,0,0)" xlink:href="#aT"/><use transform="matrix(0.07407407407407408,0,0,0.07407407407407408,13.333333333333336,0)" xlink:href="#aU"/><use transform="matrix(0.07407407407407408,0,0,0.07407407407407408,28.148148148148152,0)" xlink:href="#aV"/><use transform="matrix(0.07407407407407408,0,0,0.07407407407407408,50.296296296296305,0)" xlink:href="#aS"/></g><path fill="#4c535d" d="M24-231v-30h32v30H24zM24 0v-190h32V0H24" id="aW"/><path fill="#4c535d" d="M117-194c89-4 53 116 60 194h-32v-121c0-31-8-49-39-48C34-167 62-67 57 0H25l-1-190h30c1 10-1 24 2 32 11-22 29-35 61-36" id="aX"/><path fill="#4c535d" d="M115-194c55 1 70 41 70 98S169 2 115 4C84 4 66-9 55-30l1 105H24l-1-265h31l2 30c10-21 28-34 59-34zm-8 174c40 0 45-34 45-75s-6-73-45-74c-42 0-51 32-51 76 0 43 10 73 51 73" id="aY"/><path fill="#4c535d" d="M84 4C-5 8 30-112 23-190h32v120c0 31 7 50 39 49 72-2 45-101 50-169h31l1 190h-30c-1-10 1-25-2-33-11 22-28 36-60 37" id="aZ"/><path fill="#4c535d" d="M59-47c-2 24 18 29 38 22v24C64 9 27 4 27-40v-127H5v-23h24l9-43h21v43h35v23H59v120" id="ba"/><g id="r"><use transform="matrix(0.07407407407407408,0,0,0.07407407407407408,0,0)" xlink:href="#aW"/><use transform="matrix(0.07407407407407408,0,0,0.07407407407407408,5.851851851851853,0)" xlink:href="#aX"/><use transform="matrix(0.07407407407407408,0,0,0.07407407407407408,20.666666666666668,0)" xlink:href="#aY"/><use transform="matrix(0.07407407407407408,0,0,0.07407407407407408,35.48148148148149,0)" xlink:href="#aZ"/><use transform="matrix(0.07407407407407408,0,0,0.07407407407407408,50.296296296296305,0)" xlink:href="#ba"/></g><path fill="#4c535d" d="M206 0h-36l-40-164L89 0H53L-1-190h32L70-26l43-164h34l41 164 42-164h31" id="bb"/><path fill="#4c535d" d="M24 0v-261h32V0H24" id="bc"/><g id="s"><use transform="matrix(0.07407407407407408,0,0,0.07407407407407408,0,0)" xlink:href="#bb"/><use transform="matrix(0.07407407407407408,0,0,0.07407407407407408,19.185185185185187,0)" xlink:href="#aW"/><use transform="matrix(0.07407407407407408,0,0,0.07407407407407408,25.037037037037035,0)" xlink:href="#bc"/><use transform="matrix(0.07407407407407408,0,0,0.07407407407407408,30.888888888888893,0)" xlink:href="#bc"/></g><path fill="#4c535d" d="M179-190L93 31C79 59 56 82 12 73V49c39 6 53-20 64-50L1-190h34L92-34l54-156h33" id="bd"/><g id="t"><use transform="matrix(0.07407407407407408,0,0,0.07407407407407408,0,0)" xlink:href="#aU"/><use transform="matrix(0.07407407407407408,0,0,0.07407407407407408,14.814814814814817,0)" xlink:href="#bc"/><use transform="matrix(0.07407407407407408,0,0,0.07407407407407408,20.666666666666668,0)" xlink:href="#bb"/><use transform="matrix(0.07407407407407408,0,0,0.07407407407407408,39.85185185185187,0)" xlink:href="#aU"/><use transform="matrix(0.07407407407407408,0,0,0.07407407407407408,54.666666666666686,0)" xlink:href="#bd"/><use transform="matrix(0.07407407407407408,0,0,0.07407407407407408,68.00000000000001,0)" xlink:href="#aT"/></g><path fill="#4c535d" d="M114-163C36-179 61-72 57 0H25l-1-190h30c1 12-1 29 2 39 6-27 23-49 58-41v29" id="be"/><path fill="#4c535d" d="M100-194c62-1 85 37 85 99 1 63-27 99-86 99S16-35 15-95c0-66 28-99 85-99zM99-20c44 1 53-31 53-75 0-43-8-75-51-75s-53 32-53 75 10 74 51 75" id="bf"/><path fill="#4c535d" d="M85-194c31 0 48 13 60 33l-1-100h32l1 261h-30c-2-10 0-23-3-31C134-8 116 4 85 4 32 4 16-35 15-94c0-66 23-100 70-100zm9 24c-40 0-46 34-46 75 0 40 6 74 45 74 42 0 51-32 51-76 0-42-9-74-50-73" id="bg"/><path fill="#4c535d" d="M96-169c-40 0-48 33-48 73s9 75 48 75c24 0 41-14 43-38l32 2c-6 37-31 61-74 61-59 0-76-41-82-99-10-93 101-131 147-64 4 7 5 14 7 22l-32 3c-4-21-16-35-41-35" id="bh"/><g id="u"><use transform="matrix(0.07407407407407408,0,0,0.07407407407407408,0,0)" xlink:href="#aY"/><use transform="matrix(0.07407407407407408,0,0,0.07407407407407408,14.814814814814817,0)" xlink:href="#be"/><use transform="matrix(0.07407407407407408,0,0,0.07407407407407408,23.629629629629633,0)" xlink:href="#bf"/><use transform="matrix(0.07407407407407408,0,0,0.07407407407407408,38.44444444444445,0)" xlink:href="#bg"/><use transform="matrix(0.07407407407407408,0,0,0.07407407407407408,53.25925925925927,0)" xlink:href="#aZ"/><use transform="matrix(0.07407407407407408,0,0,0.07407407407407408,68.07407407407408,0)" xlink:href="#bh"/><use transform="matrix(0.07407407407407408,0,0,0.07407407407407408,81.40740740740742,0)" xlink:href="#aS"/></g><g id="v"><use transform="matrix(0.07407407407407408,0,0,0.07407407407407408,0,0)" xlink:href="#ba"/><use transform="matrix(0.07407407407407408,0,0,0.07407407407407408,7.407407407407408,0)" xlink:href="#aR"/><use transform="matrix(0.07407407407407408,0,0,0.07407407407407408,22.222222222222225,0)" xlink:href="#aS"/></g><g id="w"><use transform="matrix(0.07407407407407408,0,0,0.07407407407407408,0,0)" xlink:href="#aR"/><use transform="matrix(0.07407407407407408,0,0,0.07407407407407408,14.814814814814817,0)" xlink:href="#aU"/><use transform="matrix(0.07407407407407408,0,0,0.07407407407407408,29.629629629629633,0)" xlink:href="#aT"/><use transform="matrix(0.07407407407407408,0,0,0.07407407407407408,42.96296296296297,0)" xlink:href="#aR"/></g><g id="x"><use transform="matrix(0.07407407407407408,0,0,0.07407407407407408,0,0)" xlink:href="#bf"/><use transform="matrix(0.07407407407407408,0,0,0.07407407407407408,14.814814814814817,0)" xlink:href="#aZ"/><use transform="matrix(0.07407407407407408,0,0,0.07407407407407408,29.629629629629633,0)" xlink:href="#ba"/><use transform="matrix(0.07407407407407408,0,0,0.07407407407407408,37.03703703703704,0)" xlink:href="#aY"/><use transform="matrix(0.07407407407407408,0,0,0.07407407407407408,51.85185185185186,0)" xlink:href="#aZ"/><use transform="matrix(0.07407407407407408,0,0,0.07407407407407408,66.66666666666667,0)" xlink:href="#ba"/></g><g id="y"><use transform="matrix(0.07407407407407408,0,0,0.07407407407407408,0,0)" xlink:href="#aY"/><use transform="matrix(0.07407407407407408,0,0,0.07407407407407408,14.814814814814817,0)" xlink:href="#be"/><use transform="matrix(0.07407407407407408,0,0,0.07407407407407408,23.629629629629633,0)" xlink:href="#bf"/><use transform="matrix(0.07407407407407408,0,0,0.07407407407407408,38.44444444444445,0)" xlink:href="#bh"/><use transform="matrix(0.07407407407407408,0,0,0.07407407407407408,51.777777777777786,0)" xlink:href="#aS"/><use transform="matrix(0.07407407407407408,0,0,0.07407407407407408,66.59259259259261,0)" xlink:href="#aT"/><use transform="matrix(0.07407407407407408,0,0,0.07407407407407408,79.92592592592595,0)" xlink:href="#aT"/></g><path fill="#4c535d" d="M108 0H70L1-190h34L89-25l56-165h34" id="bi"/><g id="z"><use transform="matrix(0.07407407407407408,0,0,0.07407407407407408,0,0)" xlink:href="#bh"/><use transform="matrix(0.07407407407407408,0,0,0.07407407407407408,13.333333333333336,0)" xlink:href="#bf"/><use transform="matrix(0.07407407407407408,0,0,0.07407407407407408,28.148148148148152,0)" xlink:href="#aX"/><use transform="matrix(0.07407407407407408,0,0,0.07407407407407408,42.96296296296297,0)" xlink:href="#bi"/><use transform="matrix(0.07407407407407408,0,0,0.07407407407407408,56.296296296296305,0)" xlink:href="#aS"/><use transform="matrix(0.07407407407407408,0,0,0.07407407407407408,71.11111111111111,0)" xlink:href="#be"/><use transform="matrix(0.07407407407407408,0,0,0.07407407407407408,79.92592592592592,0)" xlink:href="#ba"/><use transform="matrix(0.07407407407407408,0,0,0.07407407407407408,87.33333333333333,0)" xlink:href="#aT"/></g><g id="A"><use transform="matrix(0.07407407407407408,0,0,0.07407407407407408,0,0)" xlink:href="#aU"/><use transform="matrix(0.07407407407407408,0,0,0.07407407407407408,14.814814814814817,0)" xlink:href="#aX"/></g><g id="B"><use transform="matrix(0.07407407407407408,0,0,0.07407407407407408,0,0)" xlink:href="#aW"/><use transform="matrix(0.07407407407407408,0,0,0.07407407407407408,5.851851851851853,0)" xlink:href="#aX"/><use transform="matrix(0.07407407407407408,0,0,0.07407407407407408,20.666666666666668,0)" xlink:href="#ba"/><use transform="matrix(0.07407407407407408,0,0,0.07407407407407408,28.074074074074076,0)" xlink:href="#bf"/></g><use transform="matrix(0.07407407407407408,0,0,0.07407407407407408,0,0)" xlink:href="#aU" id="C"/><path fill="#4c535d" d="M68-38c1 34 0 65-14 84H32c9-13 17-26 17-46H33v-38h35" id="bj"/><g id="D"><use transform="matrix(0.07407407407407408,0,0,0.07407407407407408,0,0)" xlink:href="#aR"/><use transform="matrix(0.07407407407407408,0,0,0.07407407407407408,14.814814814814817,0)" xlink:href="#aU"/><use transform="matrix(0.07407407407407408,0,0,0.07407407407407408,29.629629629629633,0)" xlink:href="#aT"/><use transform="matrix(0.07407407407407408,0,0,0.07407407407407408,42.96296296296297,0)" xlink:href="#aR"/><use transform="matrix(0.07407407407407408,0,0,0.07407407407407408,57.777777777777786,0)" xlink:href="#bj"/></g><g id="E"><use transform="matrix(0.07407407407407408,0,0,0.07407407407407408,0,0)" xlink:href="#aU"/><use transform="matrix(0.07407407407407408,0,0,0.07407407407407408,14.814814814814817,0)" xlink:href="#aX"/><use transform="matrix(0.07407407407407408,0,0,0.07407407407407408,29.629629629629633,0)" xlink:href="#bg"/></g><path fill="#4c535d" d="M47-170H22l-4-78h33" id="bk"/><g id="F"><use transform="matrix(0.07407407407407408,0,0,0.07407407407407408,0,0)" xlink:href="#aW"/><use transform="matrix(0.07407407407407408,0,0,0.07407407407407408,5.851851851851853,0)" xlink:href="#ba"/><use transform="matrix(0.07407407407407408,0,0,0.07407407407407408,13.259259259259261,0)" xlink:href="#bk"/><use transform="matrix(0.07407407407407408,0,0,0.07407407407407408,18.296296296296298,0)" xlink:href="#aT"/></g><path fill="#4c535d" d="M115-194c53 0 69 39 70 98 0 66-23 100-70 100C84 3 66-7 56-30L54 0H23l1-261h32v101c10-23 28-34 59-34zm-8 174c40 0 45-34 45-75 0-40-5-75-45-74-42 0-51 32-51 76 0 43 10 73 51 73" id="bl"/><g id="G"><use transform="matrix(0.07407407407407408,0,0,0.07407407407407408,0,0)" xlink:href="#aW"/><use transform="matrix(0.07407407407407408,0,0,0.07407407407407408,5.851851851851853,0)" xlink:href="#aV"/><use transform="matrix(0.07407407407407408,0,0,0.07407407407407408,28.000000000000007,0)" xlink:href="#aY"/><use transform="matrix(0.07407407407407408,0,0,0.07407407407407408,42.814814814814824,0)" xlink:href="#bf"/><use transform="matrix(0.07407407407407408,0,0,0.07407407407407408,57.62962962962964,0)" xlink:href="#aT"/><use transform="matrix(0.07407407407407408,0,0,0.07407407407407408,70.96296296296298,0)" xlink:href="#aT"/><use transform="matrix(0.07407407407407408,0,0,0.07407407407407408,84.2962962962963,0)" xlink:href="#aW"/><use transform="matrix(0.07407407407407408,0,0,0.07407407407407408,90.14814814814817,0)" xlink:href="#bl"/><use transform="matrix(0.07407407407407408,0,0,0.07407407407407408,104.96296296296296,0)" xlink:href="#bc"/><use transform="matrix(0.07407407407407408,0,0,0.07407407407407408,110.81481481481481,0)" xlink:href="#aS"/></g><g id="H"><use transform="matrix(0.07407407407407408,0,0,0.07407407407407408,0,0)" xlink:href="#ba"/><use transform="matrix(0.07407407407407408,0,0,0.07407407407407408,7.407407407407408,0)" xlink:href="#bf"/></g><g id="I"><use transform="matrix(0.07407407407407408,0,0,0.07407407407407408,0,0)" xlink:href="#be"/><use transform="matrix(0.07407407407407408,0,0,0.07407407407407408,8.814814814814817,0)" xlink:href="#aS"/><use transform="matrix(0.07407407407407408,0,0,0.07407407407407408,23.629629629629633,0)" xlink:href="#bi"/><use transform="matrix(0.07407407407407408,0,0,0.07407407407407408,36.96296296296297,0)" xlink:href="#aS"/><use transform="matrix(0.07407407407407408,0,0,0.07407407407407408,51.777777777777786,0)" xlink:href="#be"/><use transform="matrix(0.07407407407407408,0,0,0.07407407407407408,60.5925925925926,0)" xlink:href="#aT"/><use transform="matrix(0.07407407407407408,0,0,0.07407407407407408,73.92592592592594,0)" xlink:href="#aS"/></g><path fill="#4c535d" d="M143 0L79-87 56-68V0H24v-261h32v163l83-92h37l-77 82L181 0h-38" id="bm"/><g id="J"><use transform="matrix(0.07407407407407408,0,0,0.07407407407407408,0,0)" xlink:href="#bl"/><use transform="matrix(0.07407407407407408,0,0,0.07407407407407408,14.814814814814817,0)" xlink:href="#aU"/><use transform="matrix(0.07407407407407408,0,0,0.07407407407407408,29.629629629629633,0)" xlink:href="#bh"/><use transform="matrix(0.07407407407407408,0,0,0.07407407407407408,42.96296296296297,0)" xlink:href="#bm"/></g><g id="K"><use transform="matrix(0.07407407407407408,0,0,0.07407407407407408,0,0)" xlink:href="#ba"/><use transform="matrix(0.07407407407407408,0,0,0.07407407407407408,7.407407407407408,0)" xlink:href="#aR"/><use transform="matrix(0.07407407407407408,0,0,0.07407407407407408,22.222222222222225,0)" xlink:href="#aS"/></g><path fill="#4c535d" d="M177-190C167-65 218 103 67 71c-23-6-38-20-44-43l32-5c15 47 100 32 89-28v-30C133-14 115 1 83 1 29 1 15-40 15-95c0-56 16-97 71-98 29-1 48 16 59 35 1-10 0-23 2-32h30zM94-22c36 0 50-32 50-73 0-42-14-75-50-75-39 0-46 34-46 75s6 73 46 73" id="bn"/><g id="L"><use transform="matrix(0.07407407407407408,0,0,0.07407407407407408,0,0)" xlink:href="#bf"/><use transform="matrix(0.07407407407407408,0,0,0.07407407407407408,14.814814814814817,0)" xlink:href="#be"/><use transform="matrix(0.07407407407407408,0,0,0.07407407407407408,23.629629629629633,0)" xlink:href="#aW"/><use transform="matrix(0.07407407407407408,0,0,0.07407407407407408,29.481481481481488,0)" xlink:href="#bn"/><use transform="matrix(0.07407407407407408,0,0,0.07407407407407408,44.296296296296305,0)" xlink:href="#aW"/><use transform="matrix(0.07407407407407408,0,0,0.07407407407407408,50.14814814814817,0)" xlink:href="#aX"/><use transform="matrix(0.07407407407407408,0,0,0.07407407407407408,64.96296296296298,0)" xlink:href="#aU"/><use transform="matrix(0.07407407407407408,0,0,0.07407407407407408,79.7777777777778,0)" xlink:href="#bc"/></g><path fill="#4c535d" d="M33 0v-38h34V0H33" id="bo"/><g id="M"><use transform="matrix(0.07407407407407408,0,0,0.07407407407407408,0,0)" xlink:href="#aW"/><use transform="matrix(0.07407407407407408,0,0,0.07407407407407408,5.851851851851853,0)" xlink:href="#aX"/><use transform="matrix(0.07407407407407408,0,0,0.07407407407407408,20.666666666666668,0)" xlink:href="#aY"/><use transform="matrix(0.07407407407407408,0,0,0.07407407407407408,35.48148148148149,0)" xlink:href="#aZ"/><use transform="matrix(0.07407407407407408,0,0,0.07407407407407408,50.296296296296305,0)" xlink:href="#ba"/><use transform="matrix(0.07407407407407408,0,0,0.07407407407407408,57.70370370370371,0)" xlink:href="#bo"/></g><path fill="#4c535d" d="M233-177c-1 41-23 64-60 70L243 0h-38l-65-103H63V0H30v-248c88 3 205-21 203 71zM63-129c60-2 137 13 137-47 0-61-80-42-137-45v92" id="bp"/><g id="N"><use transform="matrix(0.07407407407407408,0,0,0.07407407407407408,0,0)" xlink:href="#bp"/><use transform="matrix(0.07407407407407408,0,0,0.07407407407407408,19.185185185185187,0)" xlink:href="#aS"/><use transform="matrix(0.07407407407407408,0,0,0.07407407407407408,34,0)" xlink:href="#bn"/><use transform="matrix(0.07407407407407408,0,0,0.07407407407407408,48.81481481481481,0)" xlink:href="#aU"/><use transform="matrix(0.07407407407407408,0,0,0.07407407407407408,63.629629629629626,0)" xlink:href="#be"/><use transform="matrix(0.07407407407407408,0,0,0.07407407407407408,72.44444444444446,0)" xlink:href="#bg"/><use transform="matrix(0.07407407407407408,0,0,0.07407407407407408,87.25925925925927,0)" xlink:href="#bc"/><use transform="matrix(0.07407407407407408,0,0,0.07407407407407408,93.1111111111111,0)" xlink:href="#aS"/><use transform="matrix(0.07407407407407408,0,0,0.07407407407407408,107.92592592592592,0)" xlink:href="#aT"/><use transform="matrix(0.07407407407407408,0,0,0.07407407407407408,121.25925925925925,0)" xlink:href="#aT"/></g><path fill="#4c535d" d="M101-234c-31-9-42 10-38 44h38v23H63V0H32v-167H5v-23h27c-7-52 17-82 69-68v24" id="bq"/><g id="O"><use transform="matrix(0.07407407407407408,0,0,0.07407407407407408,0,0)" xlink:href="#bf"/><use transform="matrix(0.07407407407407408,0,0,0.07407407407407408,14.814814814814817,0)" xlink:href="#bq"/></g><path fill="#4c535d" d="M9 0v-24l116-142H16v-24h144v24L44-24h123V0H9" id="br"/><g id="P"><use transform="matrix(0.07407407407407408,0,0,0.07407407407407408,0,0)" xlink:href="#aT"/><use transform="matrix(0.07407407407407408,0,0,0.07407407407407408,13.333333333333336,0)" xlink:href="#aW"/><use transform="matrix(0.07407407407407408,0,0,0.07407407407407408,19.18518518518519,0)" xlink:href="#br"/><use transform="matrix(0.07407407407407408,0,0,0.07407407407407408,32.518518518518526,0)" xlink:href="#aS"/></g><g id="Q"><use transform="matrix(0.07407407407407408,0,0,0.07407407407407408,0,0)" xlink:href="#aW"/><use transform="matrix(0.07407407407407408,0,0,0.07407407407407408,5.851851851851853,0)" xlink:href="#aX"/><use transform="matrix(0.07407407407407408,0,0,0.07407407407407408,20.666666666666668,0)" xlink:href="#aY"/><use transform="matrix(0.07407407407407408,0,0,0.07407407407407408,35.48148148148149,0)" xlink:href="#aZ"/><use transform="matrix(0.07407407407407408,0,0,0.07407407407407408,50.296296296296305,0)" xlink:href="#ba"/><use transform="matrix(0.07407407407407408,0,0,0.07407407407407408,57.70370370370371,0)" xlink:href="#bj"/></g><g id="R"><use transform="matrix(0.07407407407407408,0,0,0.07407407407407408,0,0)" xlink:href="#bi"/><use transform="matrix(0.07407407407407408,0,0,0.07407407407407408,13.333333333333336,0)" xlink:href="#aU"/><use transform="matrix(0.07407407407407408,0,0,0.07407407407407408,28.148148148148152,0)" xlink:href="#bc"/><use transform="matrix(0.07407407407407408,0,0,0.07407407407407408,34.00000000000001,0)" xlink:href="#aZ"/><use transform="matrix(0.07407407407407408,0,0,0.07407407407407408,48.814814814814824,0)" xlink:href="#aS"/></g><g id="S"><use transform="matrix(0.07407407407407408,0,0,0.07407407407407408,0,0)" xlink:href="#bl"/><use transform="matrix(0.07407407407407408,0,0,0.07407407407407408,14.814814814814817,0)" xlink:href="#aS"/></g><g id="T"><use transform="matrix(0.07407407407407408,0,0,0.07407407407407408,0,0)" xlink:href="#aT"/><use transform="matrix(0.07407407407407408,0,0,0.07407407407407408,13.333333333333336,0)" xlink:href="#aY"/><use transform="matrix(0.07407407407407408,0,0,0.07407407407407408,28.148148148148152,0)" xlink:href="#aS"/><use transform="matrix(0.07407407407407408,0,0,0.07407407407407408,42.96296296296297,0)" xlink:href="#bh"/><use transform="matrix(0.07407407407407408,0,0,0.07407407407407408,56.296296296296305,0)" xlink:href="#aW"/><use transform="matrix(0.07407407407407408,0,0,0.07407407407407408,62.14814814814816,0)" xlink:href="#bq"/><use transform="matrix(0.07407407407407408,0,0,0.07407407407407408,69.55555555555557,0)" xlink:href="#aW"/><use transform="matrix(0.07407407407407408,0,0,0.07407407407407408,75.40740740740742,0)" xlink:href="#bh"/></g><g id="U"><use transform="matrix(0.07407407407407408,0,0,0.07407407407407408,0,0)" xlink:href="#bc"/><use transform="matrix(0.07407407407407408,0,0,0.07407407407407408,5.851851851851853,0)" xlink:href="#aS"/><use transform="matrix(0.07407407407407408,0,0,0.07407407407407408,20.666666666666668,0)" xlink:href="#aX"/><use transform="matrix(0.07407407407407408,0,0,0.07407407407407408,35.48148148148149,0)" xlink:href="#bn"/><use transform="matrix(0.07407407407407408,0,0,0.07407407407407408,50.296296296296305,0)" xlink:href="#ba"/><use transform="matrix(0.07407407407407408,0,0,0.07407407407407408,57.70370370370371,0)" xlink:href="#aR"/><use transform="matrix(0.07407407407407408,0,0,0.07407407407407408,72.51851851851853,0)" xlink:href="#bo"/></g><g id="V"><use transform="matrix(0.07407407407407408,0,0,0.07407407407407408,0,0)" xlink:href="#aQ"/><use transform="matrix(0.07407407407407408,0,0,0.07407407407407408,16.222222222222225,0)" xlink:href="#aR"/><use transform="matrix(0.07407407407407408,0,0,0.07407407407407408,31.03703703703704,0)" xlink:href="#aW"/><use transform="matrix(0.07407407407407408,0,0,0.07407407407407408,36.88888888888889,0)" xlink:href="#aT"/></g><g id="W"><use transform="matrix(0.07407407407407408,0,0,0.07407407407407408,0,0)" xlink:href="#aV"/><use transform="matrix(0.07407407407407408,0,0,0.07407407407407408,22.148148148148152,0)" xlink:href="#aU"/><use transform="matrix(0.07407407407407408,0,0,0.07407407407407408,36.96296296296297,0)" xlink:href="#bm"/><use transform="matrix(0.07407407407407408,0,0,0.07407407407407408,50.296296296296305,0)" xlink:href="#aS"/><use transform="matrix(0.07407407407407408,0,0,0.07407407407407408,65.11111111111111,0)" xlink:href="#aT"/></g><g id="X"><use transform="matrix(0.07407407407407408,0,0,0.07407407407407408,0,0)" xlink:href="#ba"/><use transform="matrix(0.07407407407407408,0,0,0.07407407407407408,7.407407407407408,0)" xlink:href="#aR"/><use transform="matrix(0.07407407407407408,0,0,0.07407407407407408,22.222222222222225,0)" xlink:href="#aS"/><use transform="matrix(0.07407407407407408,0,0,0.07407407407407408,37.03703703703704,0)" xlink:href="#aV"/></g><g id="Y"><use transform="matrix(0.07407407407407408,0,0,0.07407407407407408,0,0)" xlink:href="#aZ"/><use transform="matrix(0.07407407407407408,0,0,0.07407407407407408,14.814814814814817,0)" xlink:href="#aT"/><use transform="matrix(0.07407407407407408,0,0,0.07407407407407408,28.148148148148152,0)" xlink:href="#aS"/><use transform="matrix(0.07407407407407408,0,0,0.07407407407407408,42.96296296296297,0)" xlink:href="#bq"/><use transform="matrix(0.07407407407407408,0,0,0.07407407407407408,50.370370370370374,0)" xlink:href="#aZ"/><use transform="matrix(0.07407407407407408,0,0,0.07407407407407408,65.18518518518519,0)" xlink:href="#bc"/></g><g id="Z"><use transform="matrix(0.07407407407407408,0,0,0.07407407407407408,0,0)" xlink:href="#bq"/><use transform="matrix(0.07407407407407408,0,0,0.07407407407407408,7.407407407407408,0)" xlink:href="#bf"/><use transform="matrix(0.07407407407407408,0,0,0.07407407407407408,22.222222222222225,0)" xlink:href="#be"/></g><path fill="#4c535d" d="M141 0L90-78 38 0H4l68-98-65-92h35l48 74 47-74h35l-64 92 68 98h-35" id="bs"/><g id="aa"><use transform="matrix(0.07407407407407408,0,0,0.07407407407407408,0,0)" xlink:href="#aW"/><use transform="matrix(0.07407407407407408,0,0,0.07407407407407408,5.851851851851853,0)" xlink:href="#aX"/><use transform="matrix(0.07407407407407408,0,0,0.07407407407407408,20.666666666666668,0)" xlink:href="#bg"/><use transform="matrix(0.07407407407407408,0,0,0.07407407407407408,35.48148148148149,0)" xlink:href="#aS"/><use transform="matrix(0.07407407407407408,0,0,0.07407407407407408,50.296296296296305,0)" xlink:href="#bs"/><use transform="matrix(0.07407407407407408,0,0,0.07407407407407408,63.62962962962964,0)" xlink:href="#aW"/><use transform="matrix(0.07407407407407408,0,0,0.07407407407407408,69.4814814814815,0)" xlink:href="#aX"/><use transform="matrix(0.07407407407407408,0,0,0.07407407407407408,84.2962962962963,0)" xlink:href="#bn"/></g><g id="ab"><use transform="matrix(0.07407407407407408,0,0,0.07407407407407408,0,0)" xlink:href="#bh"/><use transform="matrix(0.07407407407407408,0,0,0.07407407407407408,13.333333333333336,0)" xlink:href="#bf"/><use transform="matrix(0.07407407407407408,0,0,0.07407407407407408,28.148148148148152,0)" xlink:href="#aV"/><use transform="matrix(0.07407407407407408,0,0,0.07407407407407408,50.296296296296305,0)" xlink:href="#aY"/><use transform="matrix(0.07407407407407408,0,0,0.07407407407407408,65.11111111111111,0)" xlink:href="#aU"/><use transform="matrix(0.07407407407407408,0,0,0.07407407407407408,79.92592592592592,0)" xlink:href="#be"/><use transform="matrix(0.07407407407407408,0,0,0.07407407407407408,88.74074074074073,0)" xlink:href="#aW"/><use transform="matrix(0.07407407407407408,0,0,0.07407407407407408,94.5925925925926,0)" xlink:href="#aT"/><use transform="matrix(0.07407407407407408,0,0,0.07407407407407408,107.92592592592592,0)" xlink:href="#bf"/><use transform="matrix(0.07407407407407408,0,0,0.07407407407407408,122.74074074074073,0)" xlink:href="#aX"/><use transform="matrix(0.07407407407407408,0,0,0.07407407407407408,137.55555555555554,0)" xlink:href="#bo"/></g></defs></g></svg>