<svg xmlns="http://www.w3.org/2000/svg" xmlns:xlink="http://www.w3.org/1999/xlink" xmlns:lucid="lucid" width="1415.79" height="597.98"><g transform="translate(1757.1277981688763 202.47584126125747)" lucid:page-tab-id="0_0"><path d="M-776.8 39.23a7.65 7.65 0 0 1 9.43 0l88.06 69.1a4.7 4.7 0 0 1 0 7.4l-88.07 69.1a7.65 7.65 0 0 1-9.44 0l-88.07-69.1a4.7 4.7 0 0 1 0-7.4z" stroke="#1071e5" stroke-width="3" fill="#e08fff"/><use xlink:href="#a" transform="matrix(1,0,0,1,-864.592183047361,40.52415873874253) translate(49.38771604938272 75.87152777777777)"/><use xlink:href="#b" transform="matrix(1,0,0,1,-864.592183047361,40.52415873874253) translate(75.2519135802469 75.87152777777777)"/><path d="M-382.84-17.98c22.1 0 40 17.9 40 40s-17.9 40-40 40H-485c-22.1 0-40-17.9-40-40s17.9-40 40-40z" stroke="#000" stroke-opacity="0" stroke-width="3" fill="#00c2a8"/><use xlink:href="#c" transform="matrix(1,0,0,1,-520.0137045052163,-12.975841261257472) translate(64.2475925925926 27.470833333333335)"/><use xlink:href="#d" transform="matrix(1,0,0,1,-520.0137045052163,-12.975841261257472) translate(22.88555555555555 52.27083333333334)"/><path d="M-1593.63 112.02h97.3" stroke="#635dff" stroke-width="4" fill="none"/><path d="M-1593.58 114h-2.17l.12-1.98-.07-1.97h2.12z" stroke="#635dff" stroke-width=".05" fill="#635dff"/><path d="M-1480.06 112.02l-14.27 4.64v-9.27z" stroke="#635dff" stroke-width="4" fill="#635dff"/><path d="M-1473.6 68.02a6 6 0 0 1 6-6h190a6 6 0 0 1 6 6v88a6 6 0 0 1-6 6h-190a6 6 0 0 1-6-6z" stroke="#000" stroke-opacity="0" stroke-width="3" fill="#6db1ff"/><use xlink:href="#e" transform="matrix(1,0,0,1,-1461.592183047361,74.02415873874253) translate(15.604629629629613 30.783333333333335)"/><use xlink:href="#f" transform="matrix(1,0,0,1,-1461.592183047361,74.02415873874253) translate(67.27129629629628 30.783333333333335)"/><use xlink:href="#g" transform="matrix(1,0,0,1,-1461.592183047361,74.02415873874253) translate(23.612962962962968 55.58333333333334)"/><use xlink:href="#h" transform="matrix(1,0,0,1,-1461.592183047361,74.02415873874253) translate(63.79814814814816 55.58333333333334)"/><path d="M-1635.63 72.02c22.1 0 40 17.9 40 40s-17.9 40-40 40h-80c-22.1 0-40-17.9-40-40s17.9-40 40-40z" stroke="#000" stroke-opacity="0" stroke-width="3" fill="#00c2a8"/><use xlink:href="#i" transform="matrix(1,0,0,1,-1750.6277981688763,77.02415873874253) translate(53.21388888888889 38.40833333333333)"/><path d="M-1452.6-194.98a6 6 0 0 1 6-6h148a6 6 0 0 1 6 6v108a6 6 0 0 1-6 6h-148a6 6 0 0 1-6-6z" stroke="#000" stroke-opacity="0" stroke-width="3" fill="#6db1ff"/><use xlink:href="#j" transform="matrix(1,0,0,1,-1440.592183047361,-188.97584126125747) translate(16.858024691358025 53.77777777777778)"/><path d="M-1372.6 60.02V-58.24" stroke="#635dff" stroke-width="4" fill="none"/><path d="M-1370.62 62.02h-3.95v-2.05h3.95z" stroke="#635dff" stroke-width=".05" fill="#635dff"/><path d="M-1372.6-74.5l4.64 14.26h-9.27z" stroke="#635dff" stroke-width="4" fill="#635dff"/><path d="M-1452.6 280a6 6 0 0 1 6-6h148a6 6 0 0 1 6 6v108a6 6 0 0 1-6 6h-148a6 6 0 0 1-6-6z" stroke="#000" stroke-opacity="0" stroke-width="3" fill="#6db1ff"/><use xlink:href="#k" transform="matrix(1,0,0,1,-1440.592183047361,286) translate(19.296296296296283 53.77777777777778)"/><path d="M-1372.6 164.02v87.24" stroke="#635dff" stroke-width="4" fill="none"/><path d="M-1370.62 164.07h-3.95v-2.05h3.95z" stroke="#635dff" stroke-width=".05" fill="#635dff"/><path d="M-1372.6 267.53l-4.63-14.27h9.27z" stroke="#635dff" stroke-width="4" fill="#635dff"/><path d="M-1193.6-194.64a6 6 0 0 1 6-6h207a6 6 0 0 1 6 6v108a6 6 0 0 1-6 6h-207a6 6 0 0 1-6-6z" stroke="#000" stroke-opacity="0" stroke-width="3" fill="#6db1ff"/><use xlink:href="#l" transform="matrix(1,0,0,1,-1181.592183047361,-188.64250792792413) translate(14.228395061728406 38.77777777777778)"/><use xlink:href="#m" transform="matrix(1,0,0,1,-1181.592183047361,-188.64250792792413) translate(115.40123456790124 38.77777777777778)"/><use xlink:href="#n" transform="matrix(1,0,0,1,-1181.592183047361,-188.64250792792413) translate(6.851851851851848 65.44444444444446)"/><use xlink:href="#o" transform="matrix(1,0,0,1,-1181.592183047361,-188.64250792792413) translate(38.888888888888886 65.44444444444446)"/><use xlink:href="#p" transform="matrix(1,0,0,1,-1181.592183047361,-188.64250792792413) translate(140 65.44444444444446)"/><path d="M-1290.6-140.98h74.27" stroke="#635dff" stroke-width="4" fill="none"/><path d="M-1290.54-139h-2.05v-3.95h2.06z" stroke="#635dff" stroke-width=".05" fill="#635dff"/><path d="M-1200.06-140.98l-14.27 4.64v-9.27z" stroke="#635dff" stroke-width="4" fill="#635dff"/><path d="M-1193.6 280a6 6 0 0 1 6-6h207a6 6 0 0 1 6 6v108a6 6 0 0 1-6 6h-207a6 6 0 0 1-6-6z" stroke="#000" stroke-opacity="0" stroke-width="3" fill="#6db1ff"/><use xlink:href="#q" transform="matrix(1,0,0,1,-1181.592183047361,286) translate(5.03086419753086 53.77777777777778)"/><use xlink:href="#r" transform="matrix(1,0,0,1,-1181.592183047361,286) translate(92.56172839506172 53.77777777777778)"/><path d="M-881.6-194.64a6 6 0 0 1 6-6h207a6 6 0 0 1 6 6v108a6 6 0 0 1-6 6h-207a6 6 0 0 1-6-6z" stroke="#000" stroke-opacity="0" stroke-width="3" fill="#6db1ff"/><use xlink:href="#l" transform="matrix(1,0,0,1,-869.592183047361,-188.64250792792413) translate(14.228395061728406 38.77777777777778)"/><use xlink:href="#m" transform="matrix(1,0,0,1,-869.592183047361,-188.64250792792413) translate(115.40123456790124 38.77777777777778)"/><use xlink:href="#n" transform="matrix(1,0,0,1,-869.592183047361,-188.64250792792413) translate(6.851851851851848 65.44444444444446)"/><use xlink:href="#o" transform="matrix(1,0,0,1,-869.592183047361,-188.64250792792413) translate(38.888888888888886 65.44444444444446)"/><use xlink:href="#p" transform="matrix(1,0,0,1,-869.592183047361,-188.64250792792413) translate(140 65.44444444444446)"/><path d="M-972.6-140.64h68.27" stroke="#635dff" stroke-width="4" fill="none"/><path d="M-972.54-138.67h-2.05v-3.95h2.06z" stroke="#635dff" stroke-width=".05" fill="#635dff"/><path d="M-888.06-140.64l-14.27 4.63v-9.28z" stroke="#635dff" stroke-width="4" fill="#635dff"/><path d="M-881.6 280a6 6 0 0 1 6-6h207a6 6 0 0 1 6 6v108a6 6 0 0 1-6 6h-207a6 6 0 0 1-6-6z" stroke="#000" stroke-opacity="0" stroke-width="3" fill="#6db1ff"/><use xlink:href="#s" transform="matrix(1,0,0,1,-869.592183047361,286) translate(7.4691358024691255 53.77777777777778)"/><use xlink:href="#t" transform="matrix(1,0,0,1,-869.592183047361,286) translate(90.12345679012344 53.77777777777778)"/><path d="M-1290.6 334h74.27" stroke="#635dff" stroke-width="4" fill="none"/><path d="M-1290.54 335.98h-2.05v-3.96h2.06z" stroke="#635dff" stroke-width=".05" fill="#635dff"/><path d="M-1200.06 334l-14.27 4.63v-9.26z" stroke="#635dff" stroke-width="4" fill="#635dff"/><path d="M-972.6 334h68.27" stroke="#635dff" stroke-width="4" fill="none"/><path d="M-972.54 335.98h-2.05v-3.96h2.06z" stroke="#635dff" stroke-width=".05" fill="#635dff"/><path d="M-888.06 334l-14.27 4.63v-9.26z" stroke="#635dff" stroke-width="4" fill="#635dff"/><path d="M-772.1-78.64v92" stroke="#635dff" stroke-width="4" fill="none"/><path d="M-770.12-78.6h-3.95v-2.04h3.95z" stroke="#635dff" stroke-width=".05" fill="#635dff"/><path d="M-772.1 29.62l-4.63-14.26h9.27z" stroke="#635dff" stroke-width="4" fill="#635dff"/><path d="M-772.1 272v-61.3" stroke="#635dff" stroke-width="4" fill="none"/><path d="M-770.12 274h-3.95v-2.05h3.95z" stroke="#635dff" stroke-width=".05" fill="#635dff"/><path d="M-772.1 194.43l4.64 14.26h-9.27z" stroke="#635dff" stroke-width="4" fill="#635dff"/><path d="M-599.53 106.06l-.1 1.06-.24 1.06-.42 1-.56.95-.72.83-.83.7-.94.58-1 .42-1.08.26-1.05.08H-675v-1.95h68.45l.83-.07.76-.18.73-.3.67-.4.6-.52.5-.6.43-.68.3-.72.18-.77.07-.8V77.7h1.95zm56-83.06h-50.94l-.82.06-.76.2-.73.3-.66.4-.6.5-.5.6-.42.68-.3.73-.2.77-.05.82v28.3h-1.95V28l.08-1.07.25-1.06.42-1 .58-.95.7-.83.84-.72.92-.57 1-.4 1.08-.27 1.05-.08h51.03z" stroke="#54c45e" stroke-width=".05" fill="#54c45e"/><path d="M-674.98 113h-1.1l.08-.98-.1-.97h1.12z" fill="#54c45e"/><path stroke="#54c45e" stroke-width=".05" fill="#54c45e"/><path d="M-528.25 22.02l-14.27 4.64V17.4z" fill="#54c45e"/><path d="M-525.1 22.02L-543.5 28V16.05zm-16.44 3.3l10.13-3.3-10.14-3.3z" stroke="#54c45e" stroke-width=".05" fill="#54c45e"/><g><use xlink:href="#u" transform="matrix(1,0,0,1,-615.8178870766997,56.35749207207586) translate(0 14.222222222222223)"/></g><path d="M-382.84 188.52c22.1 0 40 17.9 40 40s-17.9 40-40 40H-485c-22.1 0-40-17.9-40-40s17.9-40 40-40z" stroke="#000" stroke-opacity="0" stroke-width="3" fill="#fe7070"/><g><use xlink:href="#v" transform="matrix(1,0,0,1,-520.0137045052163,193.52415873874253) translate(19.00870370370371 25.81666666666667)"/><use xlink:href="#w" transform="matrix(1,0,0,1,-520.0137045052163,193.52415873874253) translate(57.056851851851846 51.41666666666668)"/></g><path d="M-869.18 113h-32.96l-.83.06-.76.2-.73.3-.67.4-.6.5-.5.6-.42.68-.3.73-.2.77-.06.82V222.5l.06.8.18.78.3.72.42.68.5.6.6.5.68.42.73.3.76.18.83.07h95.5v1.95h-95.58l-1.05-.08-1.07-.26-1-.42-.94-.57-.83-.7-.73-.84-.57-.94-.42-1.02-.25-1.06-.08-1.06V118l.08-1.07.25-1.06.42-1 .57-.95.72-.83.82-.72.93-.57 1-.4 1.08-.27 1.05-.08h33.04zm325.66 114.55v1.95h-239.52v-1.95z" stroke="#fe7070" stroke-width=".05" fill="#fe7070"/><path d="M-868.18 112.02l.1.98h-1.13v-1.95h1.1z" fill="#fe7070"/><path stroke="#fe7070" stroke-width=".05" fill="#fe7070"/><path d="M-528.25 228.52l-14.27 4.64v-9.27z" fill="#fe7070"/><path d="M-525.1 228.52l-18.4 5.98v-11.95zm-16.44 3.3l10.13-3.3-10.14-3.3z" stroke="#fe7070" stroke-width=".05" fill="#fe7070"/><g><use xlink:href="#x" transform="matrix(1,0,0,1,-806.6491115869887,217.85749207207587) translate(0 14.222222222222223)"/></g><defs><path d="M24 0v-248h52V0H24" id="y"/><path d="M76-208v77h127v40H76V0H24v-248h183v40H76" id="z"/><g id="a"><use transform="matrix(0.06172839506172839,0,0,0.06172839506172839,0,0)" xlink:href="#y"/><use transform="matrix(0.06172839506172839,0,0,0.06172839506172839,6.172839506172839,0)" xlink:href="#z"/></g><path d="M24 0v-248h195v40H76v63h132v40H76v65h150V0H24" id="A"/><path d="M84 4C32 4 15-41 15-95c0-55 18-99 73-99 29 0 47 12 58 34l2-30h48l-1 265h-49V-32C136-9 114 4 84 4zm21-34c32 0 41-29 41-66 0-36-9-64-40-64-33 0-39 30-40 65 0 43 13 65 39 65" id="B"/><path d="M85 4C-2 5 27-109 22-190h50c7 57-23 150 33 157 60-5 35-97 40-157h50l1 190h-47c-2-12 1-28-3-38-12 25-28 42-61 42" id="C"/><path d="M133-34C117-15 103 5 69 4 32 3 11-16 11-54c-1-60 55-63 116-61 1-26-3-47-28-47-18 1-26 9-28 27l-52-2c7-38 36-58 82-57s74 22 75 68l1 82c-1 14 12 18 25 15v27c-30 8-71 5-69-32zm-48 3c29 0 43-24 42-57-32 0-66-3-65 30 0 17 8 27 23 27" id="D"/><path d="M25 0v-261h50V0H25" id="E"/><g id="b"><use transform="matrix(0.06172839506172839,0,0,0.06172839506172839,0,0)" xlink:href="#A"/><use transform="matrix(0.06172839506172839,0,0,0.06172839506172839,14.814814814814813,0)" xlink:href="#B"/><use transform="matrix(0.06172839506172839,0,0,0.06172839506172839,28.33333333333333,0)" xlink:href="#C"/><use transform="matrix(0.06172839506172839,0,0,0.06172839506172839,41.85185185185185,0)" xlink:href="#D"/><use transform="matrix(0.06172839506172839,0,0,0.06172839506172839,54.197530864197525,0)" xlink:href="#E"/></g><path d="M232-93c-1 65-40 97-104 97C67 4 28-28 28-90v-158h33c8 89-33 224 67 224 102 0 64-133 71-224h33v155" id="F"/><path d="M135-143c-3-34-86-38-87 0 15 53 115 12 119 90S17 21 10-45l28-5c4 36 97 45 98 0-10-56-113-15-118-90-4-57 82-63 122-42 12 7 21 19 24 35" id="G"/><path d="M100-194c63 0 86 42 84 106H49c0 40 14 67 53 68 26 1 43-12 49-29l28 8c-11 28-37 45-77 45C44 4 14-33 15-96c1-61 26-98 85-98zm52 81c6-60-76-77-97-28-3 7-6 17-6 28h103" id="H"/><path d="M114-163C36-179 61-72 57 0H25l-1-190h30c1 12-1 29 2 39 6-27 23-49 58-41v29" id="I"/><g id="c"><use transform="matrix(0.057407407407407414,0,0,0.057407407407407414,0,0)" xlink:href="#F"/><use transform="matrix(0.057407407407407414,0,0,0.057407407407407414,14.86851851851852,0)" xlink:href="#G"/><use transform="matrix(0.057407407407407414,0,0,0.057407407407407414,25.201851851851856,0)" xlink:href="#H"/><use transform="matrix(0.057407407407407414,0,0,0.057407407407407414,36.68333333333334,0)" xlink:href="#I"/></g><path d="M205 0l-28-72H64L36 0H1l101-248h38L239 0h-34zm-38-99l-47-123c-12 45-31 82-46 123h93" id="J"/><path d="M84 4C-5 8 30-112 23-190h32v120c0 31 7 50 39 49 72-2 45-101 50-169h31l1 190h-30c-1-10 1-25-2-33-11 22-28 36-60 37" id="K"/><path d="M59-47c-2 24 18 29 38 22v24C64 9 27 4 27-40v-127H5v-23h24l9-43h21v43h35v23H59v120" id="L"/><path d="M106-169C34-169 62-67 57 0H25v-261h32l-1 103c12-21 28-36 61-36 89 0 53 116 60 194h-32v-121c2-32-8-49-39-48" id="M"/><path d="M117-194c89-4 53 116 60 194h-32v-121c0-31-8-49-39-48C34-167 62-67 57 0H25l-1-190h30c1 10-1 24 2 32 11-22 29-35 61-36" id="N"/><path d="M24-231v-30h32v30H24zM24 0v-190h32V0H24" id="O"/><path d="M96-169c-40 0-48 33-48 73s9 75 48 75c24 0 41-14 43-38l32 2c-6 37-31 61-74 61-59 0-76-41-82-99-10-93 101-131 147-64 4 7 5 14 7 22l-32 3c-4-21-16-35-41-35" id="P"/><path d="M141-36C126-15 110 5 73 4 37 3 15-17 15-53c-1-64 63-63 125-63 3-35-9-54-41-54-24 1-41 7-42 31l-33-3c5-37 33-52 76-52 45 0 72 20 72 64v82c-1 20 7 32 28 27v20c-31 9-61-2-59-35zM48-53c0 20 12 33 32 33 41-3 63-29 60-74-43 2-92-5-92 41" id="Q"/><path d="M85-194c31 0 48 13 60 33l-1-100h32l1 261h-30c-2-10 0-23-3-31C134-8 116 4 85 4 32 4 16-35 15-94c0-66 23-100 70-100zm9 24c-40 0-46 34-46 75 0 40 6 74 45 74 42 0 51-32 51-76 0-42-9-74-50-73" id="R"/><g id="d"><use transform="matrix(0.057407407407407414,0,0,0.057407407407407414,0,0)" xlink:href="#J"/><use transform="matrix(0.057407407407407414,0,0,0.057407407407407414,13.777777777777779,0)" xlink:href="#K"/><use transform="matrix(0.057407407407407414,0,0,0.057407407407407414,25.25925925925926,0)" xlink:href="#L"/><use transform="matrix(0.057407407407407414,0,0,0.057407407407407414,30.999999999999996,0)" xlink:href="#M"/><use transform="matrix(0.057407407407407414,0,0,0.057407407407407414,42.48148148148148,0)" xlink:href="#H"/><use transform="matrix(0.057407407407407414,0,0,0.057407407407407414,53.96296296296296,0)" xlink:href="#N"/><use transform="matrix(0.057407407407407414,0,0,0.057407407407407414,65.44444444444444,0)" xlink:href="#L"/><use transform="matrix(0.057407407407407414,0,0,0.057407407407407414,71.18518518518519,0)" xlink:href="#O"/><use transform="matrix(0.057407407407407414,0,0,0.057407407407407414,75.72037037037038,0)" xlink:href="#P"/><use transform="matrix(0.057407407407407414,0,0,0.057407407407407414,86.0537037037037,0)" xlink:href="#Q"/><use transform="matrix(0.057407407407407414,0,0,0.057407407407407414,97.53518518518518,0)" xlink:href="#L"/><use transform="matrix(0.057407407407407414,0,0,0.057407407407407414,103.27592592592593,0)" xlink:href="#H"/><use transform="matrix(0.057407407407407414,0,0,0.057407407407407414,114.75740740740741,0)" xlink:href="#R"/></g><path d="M33 0v-248h34V0H33" id="S"/><path d="M115-194c55 1 70 41 70 98S169 2 115 4C84 4 66-9 55-30l1 105H24l-1-265h31l2 30c10-21 28-34 59-34zm-8 174c40 0 45-34 45-75s-6-73-45-74c-42 0-51 32-51 76 0 43 10 73 51 73" id="T"/><g id="e"><use transform="matrix(0.057407407407407414,0,0,0.057407407407407414,0,0)" xlink:href="#S"/><use transform="matrix(0.057407407407407414,0,0,0.057407407407407414,5.740740740740741,0)" xlink:href="#N"/><use transform="matrix(0.057407407407407414,0,0,0.057407407407407414,17.222222222222225,0)" xlink:href="#T"/><use transform="matrix(0.057407407407407414,0,0,0.057407407407407414,28.70370370370371,0)" xlink:href="#K"/><use transform="matrix(0.057407407407407414,0,0,0.057407407407407414,40.18518518518519,0)" xlink:href="#L"/></g><path d="M210-169c-67 3-38 105-44 169h-31v-121c0-29-5-50-35-48C34-165 62-65 56 0H25l-1-190h30c1 10-1 24 2 32 10-44 99-50 107 0 11-21 27-35 58-36 85-2 47 119 55 194h-31v-121c0-29-5-49-35-48" id="U"/><g id="f"><use transform="matrix(0.057407407407407414,0,0,0.057407407407407414,0,0)" xlink:href="#F"/><use transform="matrix(0.057407407407407414,0,0,0.057407407407407414,14.86851851851852,0)" xlink:href="#G"/><use transform="matrix(0.057407407407407414,0,0,0.057407407407407414,25.201851851851856,0)" xlink:href="#H"/><use transform="matrix(0.057407407407407414,0,0,0.057407407407407414,36.68333333333334,0)" xlink:href="#I"/><use transform="matrix(0.057407407407407414,0,0,0.057407407407407414,43.51481481481482,0)" xlink:href="#N"/><use transform="matrix(0.057407407407407414,0,0,0.057407407407407414,54.9962962962963,0)" xlink:href="#Q"/><use transform="matrix(0.057407407407407414,0,0,0.057407407407407414,66.47777777777779,0)" xlink:href="#U"/><use transform="matrix(0.057407407407407414,0,0,0.057407407407407414,83.6425925925926,0)" xlink:href="#H"/></g><g id="g"><use transform="matrix(0.057407407407407414,0,0,0.057407407407407414,0,0)" xlink:href="#Q"/><use transform="matrix(0.057407407407407414,0,0,0.057407407407407414,11.481481481481483,0)" xlink:href="#N"/><use transform="matrix(0.057407407407407414,0,0,0.057407407407407414,22.962962962962965,0)" xlink:href="#R"/></g><path d="M30-248c87 1 191-15 191 75 0 78-77 80-158 76V0H30v-248zm33 125c57 0 124 11 124-50 0-59-68-47-124-48v98" id="V"/><path d="M206 0h-36l-40-164L89 0H53L-1-190h32L70-26l43-164h34l41 164 42-164h31" id="W"/><path d="M100-194c62-1 85 37 85 99 1 63-27 99-86 99S16-35 15-95c0-66 28-99 85-99zM99-20c44 1 53-31 53-75 0-43-8-75-51-75s-53 32-53 75 10 74 51 75" id="X"/><g id="h"><use transform="matrix(0.057407407407407414,0,0,0.057407407407407414,0,0)" xlink:href="#V"/><use transform="matrix(0.057407407407407414,0,0,0.057407407407407414,13.777777777777779,0)" xlink:href="#Q"/><use transform="matrix(0.057407407407407414,0,0,0.057407407407407414,25.25925925925926,0)" xlink:href="#G"/><use transform="matrix(0.057407407407407414,0,0,0.057407407407407414,35.592592592592595,0)" xlink:href="#G"/><use transform="matrix(0.057407407407407414,0,0,0.057407407407407414,45.92592592592593,0)" xlink:href="#W"/><use transform="matrix(0.057407407407407414,0,0,0.057407407407407414,60.79444444444445,0)" xlink:href="#X"/><use transform="matrix(0.057407407407407414,0,0,0.057407407407407414,72.27592592592593,0)" xlink:href="#I"/><use transform="matrix(0.057407407407407414,0,0,0.057407407407407414,79.10740740740741,0)" xlink:href="#R"/></g><path d="M185-189c-5-48-123-54-124 2 14 75 158 14 163 119 3 78-121 87-175 55-17-10-28-26-33-46l33-7c5 56 141 63 141-1 0-78-155-14-162-118-5-82 145-84 179-34 5 7 8 16 11 25" id="Y"/><g id="i"><use transform="matrix(0.057407407407407414,0,0,0.057407407407407414,0,0)" xlink:href="#Y"/><use transform="matrix(0.057407407407407414,0,0,0.057407407407407414,13.777777777777779,0)" xlink:href="#L"/><use transform="matrix(0.057407407407407414,0,0,0.057407407407407414,19.51851851851852,0)" xlink:href="#Q"/><use transform="matrix(0.057407407407407414,0,0,0.057407407407407414,30.999999999999996,0)" xlink:href="#I"/><use transform="matrix(0.057407407407407414,0,0,0.057407407407407414,37.83148148148148,0)" xlink:href="#L"/></g><g id="j"><use transform="matrix(0.06172839506172839,0,0,0.06172839506172839,0,0)" xlink:href="#F"/><use transform="matrix(0.06172839506172839,0,0,0.06172839506172839,15.987654320987653,0)" xlink:href="#G"/><use transform="matrix(0.06172839506172839,0,0,0.06172839506172839,27.098765432098766,0)" xlink:href="#H"/><use transform="matrix(0.06172839506172839,0,0,0.06172839506172839,39.44444444444444,0)" xlink:href="#I"/><use transform="matrix(0.06172839506172839,0,0,0.06172839506172839,46.79012345679012,0)" xlink:href="#N"/><use transform="matrix(0.06172839506172839,0,0,0.06172839506172839,59.1358024691358,0)" xlink:href="#Q"/><use transform="matrix(0.06172839506172839,0,0,0.06172839506172839,71.48148148148148,0)" xlink:href="#U"/><use transform="matrix(0.06172839506172839,0,0,0.06172839506172839,89.93827160493827,0)" xlink:href="#H"/></g><g id="k"><use transform="matrix(0.06172839506172839,0,0,0.06172839506172839,0,0)" xlink:href="#V"/><use transform="matrix(0.06172839506172839,0,0,0.06172839506172839,14.814814814814813,0)" xlink:href="#Q"/><use transform="matrix(0.06172839506172839,0,0,0.06172839506172839,27.160493827160494,0)" xlink:href="#G"/><use transform="matrix(0.06172839506172839,0,0,0.06172839506172839,38.27160493827161,0)" xlink:href="#G"/><use transform="matrix(0.06172839506172839,0,0,0.06172839506172839,49.38271604938272,0)" xlink:href="#W"/><use transform="matrix(0.06172839506172839,0,0,0.06172839506172839,65.37037037037038,0)" xlink:href="#X"/><use transform="matrix(0.06172839506172839,0,0,0.06172839506172839,77.71604938271606,0)" xlink:href="#I"/><use transform="matrix(0.06172839506172839,0,0,0.06172839506172839,85.06172839506175,0)" xlink:href="#R"/></g><path d="M30-248c118-7 216 8 213 122C240-48 200 0 122 0H30v-248zM63-27c89 8 146-16 146-99s-60-101-146-95v194" id="Z"/><path d="M115-194c53 0 69 39 70 98 0 66-23 100-70 100C84 3 66-7 56-30L54 0H23l1-261h32v101c10-23 28-34 59-34zm-8 174c40 0 45-34 45-75 0-40-5-75-45-74-42 0-51 32-51 76 0 43 10 73 51 73" id="aa"/><g id="l"><use transform="matrix(0.06172839506172839,0,0,0.06172839506172839,0,0)" xlink:href="#Z"/><use transform="matrix(0.06172839506172839,0,0,0.06172839506172839,15.987654320987653,0)" xlink:href="#Q"/><use transform="matrix(0.06172839506172839,0,0,0.06172839506172839,28.333333333333332,0)" xlink:href="#L"/><use transform="matrix(0.06172839506172839,0,0,0.06172839506172839,34.50617283950617,0)" xlink:href="#Q"/><use transform="matrix(0.06172839506172839,0,0,0.06172839506172839,46.85185185185185,0)" xlink:href="#aa"/><use transform="matrix(0.06172839506172839,0,0,0.06172839506172839,59.197530864197525,0)" xlink:href="#Q"/><use transform="matrix(0.06172839506172839,0,0,0.06172839506172839,71.5432098765432,0)" xlink:href="#G"/><use transform="matrix(0.06172839506172839,0,0,0.06172839506172839,82.65432098765432,0)" xlink:href="#H"/></g><path d="M24 0v-261h32V0H24" id="ab"/><path d="M143 0L79-87 56-68V0H24v-261h32v163l83-92h37l-77 82L181 0h-38" id="ac"/><g id="m"><use transform="matrix(0.06172839506172839,0,0,0.06172839506172839,0,0)" xlink:href="#ab"/><use transform="matrix(0.06172839506172839,0,0,0.06172839506172839,4.876543209876543,0)" xlink:href="#X"/><use transform="matrix(0.06172839506172839,0,0,0.06172839506172839,17.22222222222222,0)" xlink:href="#X"/><use transform="matrix(0.06172839506172839,0,0,0.06172839506172839,29.5679012345679,0)" xlink:href="#ac"/><use transform="matrix(0.06172839506172839,0,0,0.06172839506172839,40.67901234567901,0)" xlink:href="#K"/><use transform="matrix(0.06172839506172839,0,0,0.06172839506172839,53.02469135802469,0)" xlink:href="#T"/></g><path d="M101-234c-31-9-42 10-38 44h38v23H63V0H32v-167H5v-23h27c-7-52 17-82 69-68v24" id="ad"/><g id="n"><use transform="matrix(0.06172839506172839,0,0,0.06172839506172839,0,0)" xlink:href="#ad"/><use transform="matrix(0.06172839506172839,0,0,0.06172839506172839,6.172839506172839,0)" xlink:href="#X"/><use transform="matrix(0.06172839506172839,0,0,0.06172839506172839,18.51851851851852,0)" xlink:href="#I"/></g><g id="o"><use transform="matrix(0.06172839506172839,0,0,0.06172839506172839,0,0)" xlink:href="#T"/><use transform="matrix(0.06172839506172839,0,0,0.06172839506172839,12.345679012345679,0)" xlink:href="#Q"/><use transform="matrix(0.06172839506172839,0,0,0.06172839506172839,24.691358024691358,0)" xlink:href="#G"/><use transform="matrix(0.06172839506172839,0,0,0.06172839506172839,35.80246913580247,0)" xlink:href="#G"/><use transform="matrix(0.06172839506172839,0,0,0.06172839506172839,46.91358024691358,0)" xlink:href="#W"/><use transform="matrix(0.06172839506172839,0,0,0.06172839506172839,62.901234567901234,0)" xlink:href="#X"/><use transform="matrix(0.06172839506172839,0,0,0.06172839506172839,75.24691358024691,0)" xlink:href="#I"/><use transform="matrix(0.06172839506172839,0,0,0.06172839506172839,82.5925925925926,0)" xlink:href="#R"/></g><g id="p"><use transform="matrix(0.06172839506172839,0,0,0.06172839506172839,0,0)" xlink:href="#M"/><use transform="matrix(0.06172839506172839,0,0,0.06172839506172839,12.345679012345679,0)" xlink:href="#Q"/><use transform="matrix(0.06172839506172839,0,0,0.06172839506172839,24.691358024691358,0)" xlink:href="#G"/><use transform="matrix(0.06172839506172839,0,0,0.06172839506172839,35.80246913580247,0)" xlink:href="#M"/></g><path d="M197 0v-115H63V0H30v-248h33v105h134v-105h34V0h-34" id="ae"/><path d="M177-190C167-65 218 103 67 71c-23-6-38-20-44-43l32-5c15 47 100 32 89-28v-30C133-14 115 1 83 1 29 1 15-40 15-95c0-56 16-97 71-98 29-1 48 16 59 35 1-10 0-23 2-32h30zM94-22c36 0 50-32 50-73 0-42-14-75-50-75-39 0-46 34-46 75s6 73 46 73" id="af"/><g id="q"><use transform="matrix(0.06172839506172839,0,0,0.06172839506172839,0,0)" xlink:href="#ae"/><use transform="matrix(0.06172839506172839,0,0,0.06172839506172839,15.987654320987653,0)" xlink:href="#Q"/><use transform="matrix(0.06172839506172839,0,0,0.06172839506172839,28.333333333333332,0)" xlink:href="#G"/><use transform="matrix(0.06172839506172839,0,0,0.06172839506172839,39.44444444444444,0)" xlink:href="#M"/><use transform="matrix(0.06172839506172839,0,0,0.06172839506172839,51.79012345679012,0)" xlink:href="#O"/><use transform="matrix(0.06172839506172839,0,0,0.06172839506172839,56.666666666666664,0)" xlink:href="#N"/><use transform="matrix(0.06172839506172839,0,0,0.06172839506172839,69.01234567901234,0)" xlink:href="#af"/></g><path d="M140-251c81 0 123 46 123 126C263-46 219 4 140 4 59 4 17-45 17-125s42-126 123-126zm0 227c63 0 89-41 89-101s-29-99-89-99c-61 0-89 39-89 99S79-25 140-24" id="ag"/><g id="r"><use transform="matrix(0.06172839506172839,0,0,0.06172839506172839,0,0)" xlink:href="#ag"/><use transform="matrix(0.06172839506172839,0,0,0.06172839506172839,17.28395061728395,0)" xlink:href="#T"/><use transform="matrix(0.06172839506172839,0,0,0.06172839506172839,29.629629629629626,0)" xlink:href="#H"/><use transform="matrix(0.06172839506172839,0,0,0.06172839506172839,41.9753086419753,0)" xlink:href="#I"/><use transform="matrix(0.06172839506172839,0,0,0.06172839506172839,49.32098765432098,0)" xlink:href="#Q"/><use transform="matrix(0.06172839506172839,0,0,0.06172839506172839,61.66666666666666,0)" xlink:href="#L"/><use transform="matrix(0.06172839506172839,0,0,0.06172839506172839,67.83950617283949,0)" xlink:href="#O"/><use transform="matrix(0.06172839506172839,0,0,0.06172839506172839,72.71604938271604,0)" xlink:href="#X"/><use transform="matrix(0.06172839506172839,0,0,0.06172839506172839,85.06172839506172,0)" xlink:href="#N"/></g><g id="s"><use transform="matrix(0.06172839506172839,0,0,0.06172839506172839,0,0)" xlink:href="#ae"/><use transform="matrix(0.06172839506172839,0,0,0.06172839506172839,15.987654320987653,0)" xlink:href="#Q"/><use transform="matrix(0.06172839506172839,0,0,0.06172839506172839,28.333333333333332,0)" xlink:href="#G"/><use transform="matrix(0.06172839506172839,0,0,0.06172839506172839,39.44444444444444,0)" xlink:href="#M"/><use transform="matrix(0.06172839506172839,0,0,0.06172839506172839,51.79012345679012,0)" xlink:href="#H"/><use transform="matrix(0.06172839506172839,0,0,0.06172839506172839,64.1358024691358,0)" xlink:href="#R"/></g><g id="t"><use transform="matrix(0.06172839506172839,0,0,0.06172839506172839,0,0)" xlink:href="#V"/><use transform="matrix(0.06172839506172839,0,0,0.06172839506172839,14.814814814814813,0)" xlink:href="#Q"/><use transform="matrix(0.06172839506172839,0,0,0.06172839506172839,27.160493827160494,0)" xlink:href="#G"/><use transform="matrix(0.06172839506172839,0,0,0.06172839506172839,38.27160493827161,0)" xlink:href="#G"/><use transform="matrix(0.06172839506172839,0,0,0.06172839506172839,49.38271604938272,0)" xlink:href="#W"/><use transform="matrix(0.06172839506172839,0,0,0.06172839506172839,65.37037037037038,0)" xlink:href="#X"/><use transform="matrix(0.06172839506172839,0,0,0.06172839506172839,77.71604938271606,0)" xlink:href="#I"/><use transform="matrix(0.06172839506172839,0,0,0.06172839506172839,85.06172839506175,0)" xlink:href="#R"/></g><path fill="#54c45e" d="M146-102V0H94v-102L6-248h54l60 105 60-105h54" id="ah"/><path fill="#54c45e" d="M185-48c-13 30-37 53-82 52C43 2 14-33 14-96s30-98 90-98c62 0 83 45 84 108H66c0 31 8 55 39 56 18 0 30-7 34-22zm-45-69c5-46-57-63-70-21-2 6-4 13-4 21h74" id="ai"/><path fill="#54c45e" d="M137-138c1-29-70-34-71-4 15 46 118 7 119 86 1 83-164 76-172 9l43-7c4 19 20 25 44 25 33 8 57-30 24-41C81-84 22-81 20-136c-2-80 154-74 161-7" id="aj"/><g id="u"><use transform="matrix(0.04938271604938272,0,0,0.04938271604938272,0,0)" xlink:href="#ah"/><use transform="matrix(0.04938271604938272,0,0,0.04938271604938272,10.864197530864198,0)" xlink:href="#ai"/><use transform="matrix(0.04938271604938272,0,0,0.04938271604938272,20.74074074074074,0)" xlink:href="#aj"/></g><g id="v"><use transform="matrix(0.05925925925925927,0,0,0.05925925925925927,0,0)" xlink:href="#J"/><use transform="matrix(0.05925925925925927,0,0,0.05925925925925927,14.222222222222225,0)" xlink:href="#K"/><use transform="matrix(0.05925925925925927,0,0,0.05925925925925927,26.074074074074076,0)" xlink:href="#L"/><use transform="matrix(0.05925925925925927,0,0,0.05925925925925927,32,0)" xlink:href="#M"/><use transform="matrix(0.05925925925925927,0,0,0.05925925925925927,43.851851851851855,0)" xlink:href="#H"/><use transform="matrix(0.05925925925925927,0,0,0.05925925925925927,55.70370370370371,0)" xlink:href="#N"/><use transform="matrix(0.05925925925925927,0,0,0.05925925925925927,67.55555555555556,0)" xlink:href="#L"/><use transform="matrix(0.05925925925925927,0,0,0.05925925925925927,73.48148148148148,0)" xlink:href="#O"/><use transform="matrix(0.05925925925925927,0,0,0.05925925925925927,78.16296296296296,0)" xlink:href="#P"/><use transform="matrix(0.05925925925925927,0,0,0.05925925925925927,88.82962962962964,0)" xlink:href="#Q"/><use transform="matrix(0.05925925925925927,0,0,0.05925925925925927,100.68148148148148,0)" xlink:href="#L"/><use transform="matrix(0.05925925925925927,0,0,0.05925925925925927,106.60740740740741,0)" xlink:href="#O"/><use transform="matrix(0.05925925925925927,0,0,0.05925925925925927,111.28888888888889,0)" xlink:href="#X"/><use transform="matrix(0.05925925925925927,0,0,0.05925925925925927,123.14074074074074,0)" xlink:href="#N"/></g><path d="M63-220v92h138v28H63V0H30v-248h175v28H63" id="ak"/><g id="w"><use transform="matrix(0.05925925925925927,0,0,0.05925925925925927,0,0)" xlink:href="#ak"/><use transform="matrix(0.05925925925925927,0,0,0.05925925925925927,12.97777777777778,0)" xlink:href="#Q"/><use transform="matrix(0.05925925925925927,0,0,0.05925925925925927,24.829629629629633,0)" xlink:href="#O"/><use transform="matrix(0.05925925925925927,0,0,0.05925925925925927,29.511111111111113,0)" xlink:href="#ab"/><use transform="matrix(0.05925925925925927,0,0,0.05925925925925927,34.1925925925926,0)" xlink:href="#H"/><use transform="matrix(0.05925925925925927,0,0,0.05925925925925927,46.04444444444445,0)" xlink:href="#R"/></g><path fill="#fe7070" d="M175 0L67-191c6 58 2 128 3 191H24v-248h59L193-55c-6-58-2-129-3-193h46V0h-61" id="al"/><path fill="#fe7070" d="M110-194c64 0 96 36 96 99 0 64-35 99-97 99-61 0-95-36-95-99 0-62 34-99 96-99zm-1 164c35 0 45-28 45-65 0-40-10-65-43-65-34 0-45 26-45 65 0 36 10 65 43 65" id="am"/><g id="x"><use transform="matrix(0.04938271604938272,0,0,0.04938271604938272,0,0)" xlink:href="#al"/><use transform="matrix(0.04938271604938272,0,0,0.04938271604938272,12.790123456790125,0)" xlink:href="#am"/></g></defs></g></svg>